<?xml version="1.0" encoding="UTF-8"?>
<svg version="1.1" xmlns="http://www.w3.org/2000/svg" width="1200" height="1200">
<path d="M0 0 C2.44351056 -0.07199251 4.81372182 0.02323877 7.25390625 0.18359375 C8.19459961 0.23725098 8.19459961 0.23725098 9.15429688 0.29199219 C41.88100938 2.33182823 70.90745113 15.32967987 94.25390625 38.18359375 C95.58228516 39.4365625 95.58228516 39.4365625 96.9375 40.71484375 C102.83906971 46.3918484 107.73254325 52.36173293 112.25390625 59.18359375 C113.35025391 60.81361328 113.35025391 60.81361328 114.46875 62.4765625 C126.12505678 80.44045945 133.59817898 102.70852567 134.25390625 124.18359375 C134.2796875 124.87614258 134.30546875 125.56869141 134.33203125 126.28222656 C135.54881441 162.83135063 123.44475666 195.96804629 98.47192383 222.8215332 C80.50333874 241.72750172 58.61626247 254.81271272 33.25390625 261.18359375 C32.01511719 261.50199219 30.77632812 261.82039063 29.5 262.1484375 C9.35557872 266.7432248 -12.92212167 265.69931712 -32.74609375 260.18359375 C-33.41737305 260.0016748 -34.08865234 259.81975586 -34.78027344 259.63232422 C-66.83319386 250.68788084 -95.2656151 228.0689106 -111.87109375 199.37109375 C-113.19874373 196.9935599 -114.48199823 194.59544901 -115.74609375 192.18359375 C-116.05820801 191.5920752 -116.37032227 191.00055664 -116.69189453 190.39111328 C-131.26697171 162.31635709 -134.08144613 128.59358929 -125.74609375 98.18359375 C-125.5641748 97.50941406 -125.38225586 96.83523438 -125.19482422 96.140625 C-116.36912604 64.52900901 -95.12885906 37.73921093 -67.74609375 20.18359375 C-66.76898438 19.55582031 -65.791875 18.92804688 -64.78515625 18.28125 C-44.9381957 6.12299133 -22.92868122 1.53292748 0 0 Z M-78.74609375 48.18359375 C-79.39835937 48.75335938 -80.050625 49.323125 -80.72265625 49.91015625 C-101.05157438 68.69754504 -113.00663681 97.93378714 -114.74609375 125.18359375 C-115.68187747 156.22599062 -106.3459156 185.79126167 -85.74609375 209.18359375 C-84.8886841 210.26436222 -84.03391046 211.34723594 -83.18359375 212.43359375 C-62.68041079 235.56538991 -31.84718765 247.23313623 -1.65234375 249.40625 C29.59940312 250.332526 59.17609294 238.48086861 81.921875 217.3828125 C82.69144531 216.65707031 83.46101562 215.93132812 84.25390625 215.18359375 C84.93066406 214.57128906 85.60742188 213.95898438 86.3046875 213.328125 C102.78941001 197.83446797 113.35669588 175.28039819 117.25390625 153.18359375 C117.43824219 152.22453125 117.62257813 151.26546875 117.8125 150.27734375 C122.70150854 122.49428833 115.772043 92.24283147 100.09765625 68.765625 C96.99152076 64.41571916 93.70180746 60.26663465 90.25390625 56.18359375 C89.25617188 54.96542969 89.25617188 54.96542969 88.23828125 53.72265625 C70.10098605 32.42812818 42.10993872 18.45573714 14.25390625 16.18359375 C-21.26302209 13.99194236 -52.40814002 24.206465 -78.74609375 48.18359375 Z " fill="#F4FC07" transform="translate(251.74609375,428.81640625)"/>
<path d="M0 0 C2.14682127 1.61738283 2.90582097 2.49761732 3.40545654 5.1628418 C3.41957581 5.99984619 3.43369507 6.83685059 3.44824219 7.69921875 C3.47126404 8.65030518 3.49428589 9.6013916 3.51800537 10.58129883 C3.53229584 12.11886841 3.53229584 12.11886841 3.546875 13.6875 C3.56719788 14.74155029 3.58752075 15.79560059 3.60845947 16.8815918 C3.64868092 19.11072639 3.68184166 21.33999785 3.70849609 23.56933594 C3.74983989 26.98676587 3.81245589 30.40328757 3.87890625 33.8203125 C3.91531002 35.98435437 3.95050693 38.14841696 3.984375 40.3125 C4.0019989 41.33754639 4.0196228 42.36259277 4.03778076 43.41870117 C4.05340057 44.84533081 4.05340057 44.84533081 4.06933594 46.30078125 C4.08027283 47.13778564 4.09120972 47.97479004 4.10247803 48.8371582 C4 51 4 51 3 54 C6.96 54 10.92 54 15 54 C15.01458252 52.47076904 15.02916504 50.94153809 15.04418945 49.3659668 C15.1020816 43.70215249 15.1793152 38.03873956 15.26245117 32.37524414 C15.29574326 29.92218531 15.3237617 27.46904909 15.34643555 25.01586914 C15.37990229 21.49331622 15.43221515 17.97147535 15.48828125 14.44921875 C15.49467117 13.34913986 15.5010611 12.24906097 15.50764465 11.11564636 C15.52743881 10.09481461 15.54723297 9.07398285 15.56762695 8.0222168 C15.57873001 7.12286911 15.58983307 6.22352142 15.60127258 5.29692078 C16.08075039 2.53482696 16.77551557 1.66093061 19 0 C22.12744268 -0.86503734 24.14645102 -1.28451633 27.25 -0.25 C29 1 29 1 31 4 C31.24050903 6.25895691 31.24050903 6.25895691 31.22705078 8.93041992 C31.22689972 9.93123093 31.22674866 10.93204193 31.22659302 11.96318054 C31.21627045 13.04138565 31.20594788 14.11959076 31.1953125 15.23046875 C31.1924826 16.33602615 31.18965271 17.44158356 31.18673706 18.5806427 C31.17553002 22.11637128 31.15042427 25.6518478 31.125 29.1875 C31.11497089 31.58267864 31.10584492 33.97786124 31.09765625 36.37304688 C31.07558893 42.24879524 31.0410553 48.12435486 31 54 C34.96 54 38.92 54 43 54 C42.97905273 52.54182861 42.95810547 51.08365723 42.93652344 49.58129883 C42.8640829 44.16749912 42.81818495 38.75374219 42.78027344 33.33959961 C42.76016735 30.99707839 42.73287834 28.6546073 42.69824219 26.31225586 C42.64968159 22.94372177 42.62702078 19.57585169 42.609375 16.20703125 C42.58872986 15.16102249 42.56808472 14.11501373 42.54681396 13.03730774 C42.54457295 5.76338079 42.54457295 5.76338079 44.87207031 1.86206055 C47.38578982 -0.33758823 48.65564127 -1 52 -1 C55.48634601 0.62155629 56.84302194 1.76453292 59 5 C59.20446917 7.5891262 59.29371889 10.07157509 59.29052734 12.66162109 C59.29724457 13.44097015 59.30396179 14.22031921 59.31088257 15.02328491 C59.32991584 17.6067337 59.33379097 20.18992288 59.3359375 22.7734375 C59.34236726 24.57646795 59.34909575 26.37949736 59.35610962 28.18252563 C59.36809959 31.97050387 59.37178923 35.75839085 59.37060547 39.54638672 C59.37040344 44.36894088 59.3975763 49.19089798 59.43214989 54.01331139 C59.45455329 57.74372972 59.45843874 61.47400817 59.45738602 65.20448685 C59.45972678 66.98005839 59.46846308 68.75563471 59.48405075 70.53113937 C59.59545745 84.54606898 58.46655614 96.38063801 49.5859375 107.87890625 C46.19901836 112.40870205 45.70585822 115.97302262 45.7253418 121.56884766 C45.72023087 122.32746094 45.71511993 123.08607422 45.70985413 123.86767578 C45.69593262 126.3832181 45.69692101 128.89848611 45.69921875 131.4140625 C45.69532477 133.18452046 45.69098867 134.95497749 45.68623352 136.72543335 C45.67875971 140.45289107 45.67906484 144.18025421 45.68432617 147.90771484 C45.68890923 151.67997311 45.6822319 155.45190543 45.66381836 159.22412109 C45.56167317 180.34509424 45.65661746 201.0874746 49 222 C49.13707367 222.8722522 49.27414734 223.74450439 49.41537476 224.64318848 C50.41395763 230.90120265 51.52354612 237.13723863 52.67675781 243.3684082 C55.19167499 257.063144 55.83025842 268.08313417 47.875 280.25 C40.8971284 286.92448588 32.82870174 290.9392807 23.125 291.3125 C14.31881099 291.08567392 7.42249073 287.98890486 1 282 C-5.70433035 274.81028827 -8.35529116 267.32374752 -8.24951172 257.57495117 C-7.67985498 249.41302982 -6.04925243 241.36051137 -4.625 233.3125 C-4.1431058 230.55572445 -3.66400793 227.79851138 -3.18881226 225.04057312 C-2.89479901 223.33768575 -2.59691283 221.63545912 -2.29385376 219.93415833 C0.18270368 205.70825015 1.32303361 191.92163203 1.3359375 177.5078125 C1.34238735 175.78343605 1.3491172 174.05906062 1.35610962 172.33468628 C1.36796953 168.75304627 1.37180145 165.17150196 1.37060547 161.58984375 C1.37040109 157.02406979 1.39787606 152.45890987 1.43214989 147.89328194 C1.45446985 144.34487122 1.45844171 140.79660831 1.45738602 137.24813461 C1.45972762 135.56497933 1.4684688 133.88181907 1.48405075 132.19873428 C1.58495766 120.192959 0.73593287 110.60151583 -7.53515625 101.27734375 C-11.51070651 95.09668828 -12.44641985 88.35190109 -12.40405273 81.1472168 C-12.41091599 80.31352066 -12.41777924 79.47982452 -12.42485046 78.62086487 C-12.44298264 75.8968041 -12.43930342 73.1733262 -12.43359375 70.44921875 C-12.43815938 68.54352127 -12.44346609 66.63782543 -12.44947815 64.73213196 C-12.45838042 60.75388867 -12.45601589 56.7758465 -12.44604492 52.79760742 C-12.43450977 47.6985585 -12.45485063 42.60019743 -12.48396206 37.50123882 C-12.50228985 33.5730194 -12.50203929 29.64496629 -12.49632454 25.71671486 C-12.49617117 23.83602744 -12.50222861 21.95532886 -12.51461601 20.07468224 C-12.52947411 17.451281 -12.51889092 14.829171 -12.50170898 12.20581055 C-12.51137695 11.43016754 -12.52104492 10.65452454 -12.53100586 9.8553772 C-12.48241961 6.31738793 -12.29785057 4.38284652 -10.09364319 1.54963684 C-6.33270276 -1.23407142 -4.55480244 -1.11546182 0 0 Z M4 70 C1.29447637 75.41104727 2.45952336 84.27648439 4.10546875 90.01953125 C5.61742974 93.36697327 7.85641978 96.16713034 10.1484375 99.01953125 C16.70670677 109.57640774 16.56497341 119.92572209 16.4609375 131.9296875 C16.45854574 133.76937734 16.4576493 135.60906966 16.4581604 137.44876099 C16.45504484 141.29672662 16.43859075 145.14431648 16.41162109 148.9921875 C16.37788448 153.8606637 16.36998689 158.72872399 16.37151146 163.59730339 C16.37096002 167.39838443 16.35986734 171.19937923 16.34550858 175.00043106 C16.33925554 176.79169185 16.33522952 178.58296218 16.33372116 180.37423325 C16.29848257 200.36769347 14.13755852 219.74233015 10.45361328 239.37011719 C7.07273114 254.10807878 7.07273114 254.10807878 9.625 268.4375 C13.95434331 273.10863357 17.07876026 275.23861982 23.5 275.5 C28.39957754 275.31360303 31.27541458 274.35212688 35 271 C38.78187502 266.65134078 38.92782612 262.60758302 39 257 C38.75676702 253.84179938 38.2313198 250.78112618 37.63671875 247.671875 C37.32351747 245.8815192 37.01036833 244.09115429 36.69726562 242.30078125 C36.20172176 239.56145132 35.70097912 236.82315321 35.1965332 234.08544922 C30.32425399 207.37030698 29.62192567 180.48037877 29.62939453 153.39819336 C29.62960118 149.63570882 29.60181692 145.87395046 29.56785011 142.11163998 C29.54546894 139.14560162 29.54155968 136.17973905 29.54261398 133.21362495 C29.54029355 131.82600866 29.53167779 130.43838473 29.51594925 129.05085564 C29.38355576 116.2242448 31.37694227 105.4669557 39.4140625 95.21875 C45.28097115 87.01085809 43 81.25981788 43 70 C30.13 70 17.26 70 4 70 Z " fill="#F4FC09" transform="translate(65,416)"/>
<path d="M0 0 C17.73210355 10.08847096 24.77186628 31.71176294 29.9375 50.1875 C33.31071243 63.95020671 33.24587072 76.86243373 26.1875 89.375 C22.63924442 94.99380871 18.46684195 99.50127203 12.9375 103.1875 C11.75660577 106.73018268 11.81039297 109.5386618 11.80810547 113.27905273 C11.80635315 113.99838989 11.80460083 114.71772705 11.80279541 115.4588623 C11.79838337 117.84629714 11.80131786 120.2336581 11.8046875 122.62109375 C11.80401303 124.29525263 11.80304181 125.9694114 11.80178833 127.64356995 C11.80031122 131.16676763 11.80246175 134.68994002 11.80712891 138.21313477 C11.81164289 141.79062567 11.81174183 145.36806587 11.80712891 148.94555664 C11.77197856 176.29944766 12.46132072 202.39234545 17 229.4375 C17.56861365 232.85788147 18.1338868 236.27871594 18.6917572 239.7008667 C19.03569212 241.80779308 19.38585498 243.91371608 19.74342346 246.01837158 C21.53710391 256.94355276 21.87149202 266.9833806 15.25 276.4375 C9.22020615 283.78909595 1.99995629 288.25883286 -7.46875 289.50390625 C-16.0428648 289.92447201 -24.75107776 287.05490249 -31.50390625 281.7109375 C-37.81074985 275.54635353 -41.40291609 267.96646899 -42.0625 259.1875 C-41.78018412 252.93862758 -40.67465289 246.7710366 -39.63769531 240.61181641 C-38.63750963 234.65740027 -37.70793684 228.69179237 -36.77099609 222.72717285 C-36.4464212 220.68123426 -36.11289122 218.6369376 -35.77734375 216.59277344 C-35.56980469 215.30274414 -35.36226563 214.01271484 -35.1484375 212.68359375 C-34.9632959 211.55107178 -34.7781543 210.4185498 -34.58740234 209.25170898 C-32.86937568 196.90540491 -32.87006909 184.49979882 -32.82421875 172.0625 C-32.82014322 171.12082977 -32.8160677 170.17915955 -32.81186867 169.20895386 C-32.79117799 164.24298332 -32.77679297 159.27703918 -32.76733398 154.31103516 C-32.75618516 149.19208907 -32.72164102 144.07356757 -32.68216228 138.95477295 C-32.65605885 135.00168032 -32.64764873 131.04869126 -32.64405251 127.09552002 C-32.63918591 125.20726589 -32.62756983 123.3190164 -32.60901451 121.43084717 C-32.58471219 118.79859767 -32.58556915 116.16748315 -32.5925293 113.53515625 C-32.57971924 112.76004196 -32.56690918 111.98492767 -32.55371094 111.18632507 C-32.60174787 106.20459219 -33.51047023 103.68117912 -37.0625 100.1875 C-38.01125 99.465625 -38.96 98.74375 -39.9375 98 C-46.4658755 92.76077207 -50.83111262 83.33693813 -52.75 75.3125 C-53.49499672 67.86253284 -52.94342827 60.94508318 -51.4375 53.625 C-51.25928711 52.7572998 -51.08107422 51.88959961 -50.89746094 50.99560547 C-46.96757776 32.85896187 -39.13203115 12.61155208 -23.3125 1.75 C-16.08452757 -2.88752776 -7.93167221 -3.47638165 0 0 Z M-19.7265625 18.82421875 C-30.81878774 31.71449876 -38.11038601 52.52889814 -37.375 69.51171875 C-36.38937813 77.95110598 -33.15874969 83.32002789 -27.0625 89.1875 C-26.175625 89.868125 -25.28875 90.54875 -24.375 91.25 C-20.67733115 94.34804688 -18.4911531 97.68940128 -17.67875671 102.4238739 C-16.98192363 110.59968961 -16.89868149 118.75761879 -16.89453125 126.95703125 C-16.89130292 128.48369882 -16.88793779 130.0103661 -16.88444519 131.53703308 C-16.87848481 134.73506379 -16.87660149 137.93306765 -16.87719727 141.13110352 C-16.87727763 144.34307599 -16.87047674 147.55490311 -16.85668945 150.7668457 C-16.73738063 179.10321025 -17.30968722 207.02444815 -22.75 234.9375 C-26.43216566 251.0687726 -26.43216566 251.0687726 -23.9375 267.0625 C-20.65736715 270.7799839 -17.43382674 272.85455241 -12.55859375 273.5390625 C-7.6208807 273.70095473 -3.95478853 273.50739316 -0.0625 270.1875 C5.06495608 264.34789724 5.28272505 260.74866745 4.9375 253.1875 C4.57241385 249.80372716 4.02351373 246.46581773 3.44140625 243.11328125 C3.28840561 242.18637985 3.13540497 241.25947845 2.97776794 240.30448914 C2.49275188 237.36833617 1.99760341 234.43404405 1.5 231.5 C0.84698907 227.6432847 0.20413545 223.78504927 -0.43359375 219.92578125 C-0.58154892 219.07212479 -0.72950409 218.21846832 -0.88194275 217.33894348 C-3.32516405 202.55603615 -3.26089815 187.59978696 -3.3359375 172.66015625 C-3.34126118 171.65786924 -3.34658485 170.65558224 -3.35206985 169.6229229 C-3.37856251 164.33578132 -3.39802702 159.04866161 -3.41259766 153.76147461 C-3.42601135 149.40774887 -3.45403404 145.05448354 -3.49462891 140.70092773 C-3.54396415 135.40567362 -3.56871538 130.11084081 -3.57582474 124.81536674 C-3.58251875 122.80955812 -3.59769232 120.80375828 -3.62171555 118.79808235 C-3.65341035 115.99647894 -3.65339982 113.19651171 -3.64599609 110.39477539 C-3.66240143 109.57748459 -3.67880676 108.76019379 -3.69570923 107.9181366 C-3.61587975 100.51110167 -0.56081428 95.80129876 4.47265625 90.53515625 C5.72369141 89.40400391 5.72369141 89.40400391 7 88.25 C13.47368096 81.89209277 16.06646576 76.92729304 16.5 67.8125 C15.90669406 50.03246081 9.14542897 29.79132584 -3.203125 16.75390625 C-9.60356352 11.36194019 -14.21244701 13.40071079 -19.7265625 18.82421875 Z " fill="#F4FB09" transform="translate(430.0625,417.8125)"/>
<path d="M0 0 C3.49239532 2.85279966 6.78461906 5.83920957 10 9 C11.03060547 10.01126953 11.03060547 10.01126953 12.08203125 11.04296875 C28.88428234 28.70687374 36.26479923 52.9652448 36 77 C34.67729745 100.71244935 24.22129094 123.09613629 6.875 139.3984375 C-12.84474241 156.24238414 -36.67588211 164.41397493 -62.54199219 163.1953125 C-88.29846707 161.1487114 -110.06881013 148.00633067 -126.75 128.75 C-141.09885749 110.42401353 -148.34477414 86.2006662 -145.77734375 62.98681641 C-142.49367184 37.84475807 -130.24508515 16.28291917 -110.703125 0.09765625 C-77.81989705 -24.23372551 -32.74124287 -24.82877584 0 0 Z M-105 16 C-106.13501953 17.01513672 -106.13501953 17.01513672 -107.29296875 18.05078125 C-121.81466276 31.74544411 -129.70719359 50.5545437 -130.35131836 70.39672852 C-130.58141819 91.44018793 -122.87035966 110.24965833 -108.5078125 125.5859375 C-91.68628021 141.77862746 -72.87881609 147.53470766 -50.07421875 147.203125 C-30.41060869 146.6047149 -12.34709369 136.90250758 1.1875 122.875 C15.24679314 106.73698784 21.30279238 87.26493364 20 66 C17.71073373 44.9387503 8.24327533 26.83090771 -8 13 C-37.54379772 -8.18234553 -77.36280821 -9.16862709 -105 16 Z " fill="#F4FC06" transform="translate(309,489)"/>
<path d="M0 0 C1.25361328 -0.02900391 2.50722656 -0.05800781 3.79882812 -0.08789062 C5.59803711 -0.10045898 5.59803711 -0.10045898 7.43359375 -0.11328125 C8.53630615 -0.12786377 9.63901855 -0.14244629 10.77514648 -0.1574707 C13.5625 0.3125 13.5625 0.3125 15.35839844 2.12890625 C17.03817847 5.17512534 18.21727193 8.35575162 19.375 11.625 C19.90088695 13.0695416 20.42826601 14.51354075 20.95703125 15.95703125 C21.22338379 16.68615723 21.48973633 17.4152832 21.76416016 18.16650391 C22.96983333 21.40744189 24.26472205 24.6072269 25.5625 27.8125 C27.59868142 32.84787706 29.5504243 37.90692473 31.4375 43 C33.71589311 49.14438994 36.11278484 55.23447678 38.5625 61.3125 C41.273425 68.03861468 43.89702533 74.7872289 46.4140625 81.58813477 C48.05540416 86.00760329 49.78643255 90.38313942 51.5625 94.75 C54.00693741 100.8068436 56.23111272 106.91533541 58.36962891 113.08618164 C60.32515431 118.71204786 62.45533332 124.24752617 64.6796875 129.7734375 C65.5625 132.3125 65.5625 132.3125 65.5625 135.3125 C61.26207953 136.51351291 57.18970375 136.53364734 52.75 136.5625 C51.57727539 136.5934375 51.57727539 136.5934375 50.38085938 136.625 C45.01769983 136.66084401 41.26403052 135.96678179 36.5625 133.3125 C34.99609375 131.4296875 34.99609375 131.4296875 34 129.1875 C33.61328125 128.31867188 33.2265625 127.44984375 32.828125 126.5546875 C25.5625 107.94212963 25.5625 107.94212963 25.5625 104.3125 C8.53652612 104.16025233 -8.42788594 104.56813141 -25.4375 105.3125 C-26.54228537 108.14559344 -27.6463433 110.9789669 -28.75 113.8125 C-29.05873047 114.60398437 -29.36746094 115.39546875 -29.68554688 116.2109375 C-30.14477539 117.39042969 -30.14477539 117.39042969 -30.61328125 118.59375 C-30.92023926 119.37935303 -31.22719727 120.16495605 -31.54345703 120.97436523 C-32.13104668 122.51105176 -32.70036888 124.05487143 -33.24951172 125.60571289 C-34.89534985 130.24431946 -36.19738785 132.66242991 -40.4375 135.3125 C-44.23359734 136.57786578 -47.79725016 136.45764996 -51.75 136.4375 C-52.87051758 136.44330078 -52.87051758 136.44330078 -54.01367188 136.44921875 C-58.26509858 136.44175356 -62.25047691 136.15123595 -66.4375 135.3125 C-64.2245429 127.40876198 -61.44199175 119.78328558 -58.5 112.125 C-58.016938 110.86011509 -57.53411469 109.59513899 -57.05151367 108.33007812 C-52.9783187 97.66726668 -48.85578358 87.0232734 -44.72460938 76.3828125 C-41.78463091 68.80870971 -38.8757528 61.22371462 -36 53.625 C-33.6872508 47.51596042 -31.27267027 41.47226042 -28.71484375 35.4609375 C-27.01921725 31.28150338 -25.48124002 27.04995927 -23.9375 22.8125 C-15.64749937 0.12030369 -15.64749937 0.12030369 0 0 Z M-0.4375 31.3125 C-0.74880859 32.17294922 -0.74880859 32.17294922 -1.06640625 33.05078125 C-2.71153394 37.58692832 -4.36301869 42.12015025 -6.05078125 46.640625 C-9.09519252 54.80868291 -12.07547932 62.99437422 -14.875 71.25 C-15.13394043 72.00095947 -15.39288086 72.75191895 -15.65966797 73.52563477 C-16.82222149 77.00092775 -17.4375 79.60696909 -17.4375 83.3125 C-5.8875 83.3125 5.6625 83.3125 17.5625 83.3125 C16.79257994 77.92305961 15.7841034 73.74335343 13.8125 68.8125 C11.70905053 63.39475463 9.73411079 57.96471608 7.9375 52.4375 C5.56215901 45.20454851 3.03862559 38.09630457 -0.4375 31.3125 Z " fill="#FEFEFE" transform="translate(525.4375,503.6875)"/>
<path d="M0 0 C3.74985325 -0.0871747 7.49944555 -0.14045003 11.25 -0.1875 C12.31347656 -0.21263672 13.37695312 -0.23777344 14.47265625 -0.26367188 C15.49746094 -0.27333984 16.52226563 -0.28300781 17.578125 -0.29296875 C18.52075195 -0.3086792 19.46337891 -0.32438965 20.43457031 -0.34057617 C23.46407575 0.06160884 24.7840616 0.93477168 27 3 C29.35300602 7.45657677 30.18761879 12.61729851 31.3125 17.5 C31.75382276 19.38413414 32.19523153 21.26824814 32.63671875 23.15234375 C32.86149902 24.11769043 33.0862793 25.08303711 33.31787109 26.07763672 C34.40672324 30.74247571 35.51531409 35.40258038 36.625 40.0625 C36.83253906 40.93543701 37.04007813 41.80837402 37.25390625 42.70776367 C38.7888346 49.15065001 40.36548959 55.58155669 42 62 C44.65597566 55.25349393 46.72372398 48.39600175 48.75 41.4375 C49.45806611 39.0389836 50.1664046 36.64054759 50.875 34.2421875 C52.24575587 29.58535595 53.5977126 24.92363589 54.9375 20.2578125 C55.54132889 18.19260954 56.14547952 16.12750062 56.75 14.0625 C57.0190918 13.104646 57.28818359 12.14679199 57.56542969 11.15991211 C60.17829418 2.31618535 60.17829418 2.31618535 64 0 C66.9526534 -0.42899273 69.432096 -0.60548056 72.375 -0.5625 C73.48875 -0.59827148 73.48875 -0.59827148 74.625 -0.63476562 C78.94892992 -0.62330645 82.45282096 -0.1082856 85.71728516 3.03564453 C88.80356283 7.76198449 89.70268964 13.58114009 91 19 C91.66139897 21.49228931 92.32806769 23.98318611 93 26.47265625 C94.0035393 30.27316935 95.00319037 34.07466951 96 37.87695312 C98.142525 45.9825604 100.46843901 54.00723579 103 62 C105.07175613 56.25415717 106.43044931 50.36183221 107.86328125 44.43359375 C108.42549533 42.15146168 108.98867587 39.86956752 109.55273438 37.58789062 C110.43686847 34.00634825 111.31576433 30.42392823 112.1784668 26.8371582 C113.01548697 23.36508333 113.87482766 19.89917597 114.73828125 16.43359375 C115.11669914 14.82719276 115.11669914 14.82719276 115.50276184 13.18833923 C116.92246657 7.57916431 118.0109982 3.44807614 123 0 C125.5871582 -0.56762695 125.5871582 -0.56762695 128.30078125 -0.48828125 C129.27724609 -0.47216797 130.25371094 -0.45605469 131.25976562 -0.43945312 C132.26716797 -0.39755859 133.27457031 -0.35566406 134.3125 -0.3125 C135.85260742 -0.27866211 135.85260742 -0.27866211 137.42382812 -0.24414062 C139.9507179 -0.18537575 142.47460255 -0.10327849 145 0 C146.63157501 3.26315001 144.9019473 6.36491651 143.875 9.6875 C143.64417725 10.45352539 143.41335449 11.21955078 143.17553711 12.00878906 C141.72261259 16.78571655 140.16973243 21.52253784 138.5625 26.25 C136.48459406 32.3661005 134.68027582 38.53063953 132.9375 44.75 C131.1825919 51.00884049 129.3232191 57.13333064 126.99609375 63.20703125 C125.67613158 66.90810165 124.59167349 70.66382913 123.5 74.4375 C123.07304536 75.89587101 122.64596378 77.35420487 122.21875 78.8125 C121.45208346 81.43354122 120.70430713 84.05732602 119.96875 86.6875 C119.6490625 87.76 119.329375 88.8325 119 89.9375 C118.731875 90.87464844 118.46375 91.81179688 118.1875 92.77734375 C117 95 117 95 114.875 96.296875 C111.23073685 97.18813501 107.72804442 97.32969578 104 97.3125 C103.30132813 97.32861328 102.60265625 97.34472656 101.8828125 97.36132812 C97.40846089 97.36554921 94.49184191 96.84995921 91 94 C87.22171427 88.12128569 85.94964574 80.44713743 84.14331055 73.75097656 C82.1823764 66.51674949 80.01651493 59.35104628 77.8125 52.1875 C77.46735352 51.06021484 77.12220703 49.93292969 76.76660156 48.77148438 C76.43756836 47.70607422 76.10853516 46.64066406 75.76953125 45.54296875 C75.33024292 44.1202063 75.33024292 44.1202063 74.88208008 42.66870117 C74.02106863 40.06374236 73.04702976 37.53523183 72 35 C71.731875 36.27875 71.46375 37.5575 71.1875 38.875 C69.74999432 45.323529 67.93287864 51.60642323 65.55078125 57.76953125 C63.95296885 61.98840755 62.7724914 66.26596408 61.625 70.625 C55.77294608 92.22705392 55.77294608 92.22705392 52 96 C48.74154936 96.57132297 45.4272702 96.60642303 42.125 96.75 C41.21363281 96.80542969 40.30226563 96.86085938 39.36328125 96.91796875 C38.48285156 96.96050781 37.60242188 97.00304687 36.6953125 97.046875 C35.4889917 97.10633301 35.4889917 97.10633301 34.25830078 97.16699219 C31.62061978 96.97194637 30.16952826 96.51782606 28 95 C26.9543457 93.0300293 26.9543457 93.0300293 26.17578125 90.57421875 C25.87414062 89.64754395 25.5725 88.72086914 25.26171875 87.76611328 C24.94847656 86.7501709 24.63523437 85.73422852 24.3125 84.6875 C23.80203125 83.09397705 23.80203125 83.09397705 23.28125 81.46826172 C22.17077186 77.98388418 21.08394606 74.49271509 20 71 C19.25421361 68.62360144 18.50811823 66.24729982 17.76171875 63.87109375 C15.4833257 56.5882148 13.23980936 49.29481892 11 42 C10.26457898 39.6119003 9.52890595 37.22387818 8.79296875 34.8359375 C5.26246338 23.37623801 5.26246338 23.37623801 3.93896484 19.03125 C3.25958791 16.83802483 2.55930303 14.65123974 1.84619141 12.46875 C1.47026855 11.3034375 1.0943457 10.138125 0.70703125 8.9375 C0.35745361 7.87402344 0.00787598 6.81054688 -0.35229492 5.71484375 C-1 3 -1 3 0 0 Z " fill="#FEFEFE" transform="translate(767,543)"/>
<path d="M0 0 C8.91 0 17.82 0 27 0 C27.06765928 17.82804594 27.12294802 35.65598274 27.15543652 53.48412132 C27.17092086 61.76159631 27.19204016 70.038986 27.22631836 78.31640625 C27.25617292 85.52904078 27.2755636 92.74161356 27.28226548 99.95430815 C27.28618448 103.77518265 27.29542681 107.59588046 27.31719017 111.41669846 C27.33749325 115.01012734 27.34384647 118.60330609 27.33932304 122.19678688 C27.34054699 124.15021065 27.35672137 126.10360693 27.3732605 128.05696106 C27.36913651 129.21244949 27.36501251 130.36793793 27.36076355 131.55844116 C27.36352893 132.56688269 27.36629431 133.57532421 27.36914349 134.61432457 C27.24732614 135.40159746 27.12550879 136.18887035 27 137 C22.89060332 139.73959778 19.80415334 139.23321133 15 139 C14.26523438 138.98195313 13.53046875 138.96390625 12.7734375 138.9453125 C9.1480287 138.71448123 7.28980118 138.26007798 4.5625 135.8125 C2.88777299 132.79799138 2.31778535 130.41619256 2 127 C1.175 127.721875 0.35 128.44375 -0.5 129.1875 C-10.07724946 137.13842408 -19.82738331 140.73714614 -32.42578125 139.82421875 C-41.65429614 138.2014426 -49.09575028 133.04575374 -54.46875 125.48046875 C-63.54694886 110.77471294 -65.59733959 92.54083541 -61.9375 75.6875 C-57.82228181 61.97651602 -51.19530888 50.94113108 -38.37109375 44.0078125 C-29.62712527 40.29126577 -18.9876842 39.00657543 -9.84375 42.05078125 C-7.44435255 43.24695145 -5.22342463 44.50564129 -3 46 C-2.01 46.66 -1.02 47.32 0 48 C0 32.16 0 16.32 0 0 Z M-27.9765625 65.7421875 C-35.29496978 73.48223141 -35.36292765 81.1376443 -35.375 91.375 C-35.39949219 92.46039062 -35.42398437 93.54578125 -35.44921875 94.6640625 C-35.47852805 102.75342884 -34.15874311 109.02609738 -29.0625 115.4375 C-24.52718603 118.87334392 -20.64261559 119.47818776 -15 119 C-9.07973894 117.61043182 -3.81948689 114.80708424 0 110 C0.99445442 106.78907333 0.98400761 103.74538567 0.9296875 100.40234375 C0.93638458 99.49045792 0.94308167 98.57857208 0.94998169 97.63905334 C0.95472884 95.71856285 0.94192463 93.79795798 0.91259766 91.87768555 C0.87504836 88.94128207 0.91228675 86.01234557 0.95703125 83.07617188 C0.95240613 81.20571268 0.94343865 79.33525812 0.9296875 77.46484375 C0.95094193 76.15373878 0.95094193 76.15373878 0.97262573 74.81614685 C0.88033323 70.15885819 0.88033323 70.15885819 -1.52180481 66.33926392 C-9.69243766 60.33954691 -20.03956998 58.74634034 -27.9765625 65.7421875 Z " fill="#FEFEFE" transform="translate(1075,501)"/>
<path d="M0 0 C1.24160889 -0.01546875 1.24160889 -0.01546875 2.50830078 -0.03125 C13.08111318 0.12078565 21.04756787 3.70926501 28.4765625 11.171875 C38.95128792 22.83339197 38.11221956 37.09223143 38.375 51.875 C38.41329954 53.59572028 38.45235757 55.31642384 38.4921875 57.03710938 C38.68196018 65.63956006 38.79431166 74.24321834 38.8359375 82.84765625 C38.8464061 84.01233681 38.8464061 84.01233681 38.85708618 85.20054626 C38.86418465 89.39433009 38.57977149 93.30543456 37.75 97.4375 C32.18860772 98.99418768 26.39160189 99.28414248 20.875 97.375 C16.94253292 94.93687041 16.38252489 92.6654462 14.75 88.4375 C13.86699219 88.98019531 12.98398437 89.52289062 12.07421875 90.08203125 C0.06112551 97.30906508 -10.86239195 101.64454408 -24.9375 98.1875 C-33.00239035 95.750061 -37.99528817 91.66522475 -42.25 84.4375 C-44.67756719 78.57665921 -45.4595939 71.48734287 -43.6328125 65.37109375 C-40.02972156 57.22428194 -33.29035246 51.16677267 -25.2578125 47.53125 C-13.15511364 43.1302686 -1.04416198 41.75775437 11.75 41.4375 C11.49273307 39.53977809 11.21856661 37.64434323 10.9375 35.75 C10.78667969 34.69425781 10.63585937 33.63851562 10.48046875 32.55078125 C9.71247932 29.27758566 8.72828761 27.14337897 6.75 24.4375 C2.36117963 21.85584096 -1.01995239 20.96549839 -6.0859375 21.85546875 C-10.29147728 22.98656158 -14.24359065 24.7505908 -18.25 26.4375 C-26.16623037 29.65425393 -26.16623037 29.65425393 -30.0625 28.875 C-34.61356425 25.88430064 -37.35653962 22.59191992 -39.25 17.4375 C-38.45100088 13.79826315 -37.4571201 12.59262342 -34.44921875 10.33984375 C-33.29017115 9.66470941 -32.11864478 9.01068446 -30.9375 8.375 C-30.3079541 8.03210938 -29.6784082 7.68921875 -29.02978516 7.3359375 C-19.49212089 2.30529182 -10.7668195 0.11097771 0 0 Z M-15.25 63.4375 C-15.25 64.0975 -15.25 64.7575 -15.25 65.4375 C-15.91 65.4375 -16.57 65.4375 -17.25 65.4375 C-17.44573608 66.87390171 -17.63127816 68.31169504 -17.8125 69.75 C-17.91691406 70.55050781 -18.02132812 71.35101562 -18.12890625 72.17578125 C-18.39755178 74.60567116 -18.39755178 74.60567116 -17.25 77.4375 C-11.63505767 80.53144782 -6.46755377 81.46210346 -0.17578125 79.93359375 C4.25999289 78.45500237 9.43297256 76.69396522 11.75 72.4375 C12.25284493 67.73001555 12.09454361 63.15264308 11.75 58.4375 C2.78746309 57.9739205 -7.31707938 58.93238459 -15.25 63.4375 Z " fill="#FEFEFE" transform="translate(637.25,541.5625)"/>
<path d="M0 0 C0.79019531 -0.01611328 1.58039062 -0.03222656 2.39453125 -0.04882812 C13.00615921 -0.05751194 20.57646963 3.73097485 28.19140625 10.90625 C35.52053451 18.69459682 37.63381879 28.52964341 37.61352539 38.96044922 C37.61341209 40.91179276 37.61341209 40.91179276 37.61329651 42.90255737 C37.60819101 44.30743448 37.60297504 45.71231119 37.59765625 47.1171875 C37.59578923 48.56592764 37.59436667 50.01466842 37.59336853 51.46340942 C37.58956573 55.26096363 37.57975474 59.05847908 37.56866455 62.85601807 C37.55840215 66.73734005 37.55386059 70.61866834 37.54882812 74.5 C37.5381303 82.10418426 37.52108098 89.70833668 37.5 97.3125 C23.00062375 99.18796781 23.00062375 99.18796781 17.5 95.0625 C15.46246644 92.26089136 15.03778428 90.65124407 14.5 87.3125 C13.19289063 88.23482422 13.19289063 88.23482422 11.859375 89.17578125 C2.12259963 95.8572616 -7.3626345 100.46843957 -19.5 99.3125 C-29.13260708 97.40532672 -35.57165467 94.21696044 -41.5 86.3125 C-44.92533749 80.65271296 -45.11760501 73.07377014 -44.06640625 66.671875 C-41.54232281 58.28678424 -36.66959062 53.89286724 -29.23046875 49.6953125 C-16.17938812 43.08575235 -2.95923232 41.92229583 11.5 42.3125 C11.29766165 40.08073823 11.06197726 37.85198507 10.8125 35.625 C10.62107422 33.76294922 10.62107422 33.76294922 10.42578125 31.86328125 C9.13383469 26.90809383 6.51820782 24.51251546 2.1875 21.9375 C-5.68763312 20.10607369 -13.67225155 23.70290624 -20.5234375 27.40625 C-24.13197105 29.0607555 -27.64925374 29.20010702 -31.5 28.3125 C-35.20860851 25.45067737 -37.66204768 21.58680772 -39.5 17.3125 C-39.5 16.3225 -39.5 15.3325 -39.5 14.3125 C-28.56697144 4.30439143 -14.5304077 -0.05925941 0 0 Z M-17.5 65.3125 C-19.03214888 68.37679776 -18.72938548 70.9290642 -18.5 74.3125 C-17.47122608 77.22330119 -17.47122608 77.22330119 -15.5 79.3125 C-9.23315167 81.64018652 -2.3629319 80.74486443 3.671875 78.23828125 C6.99807024 76.55386186 9.81481421 74.68287158 11.5 71.3125 C11.57092842 69.1052077 11.58415025 66.89582548 11.5625 64.6875 C11.55347656 63.49898437 11.54445313 62.31046875 11.53515625 61.0859375 C11.52355469 60.17070313 11.51195312 59.25546875 11.5 58.3125 C1.74474675 57.80791794 -9.89883854 58.58004271 -17.5 65.3125 Z " fill="#FEFEFE" transform="translate(960.5,541.6875)"/>
<path d="M0 0 C6.73572127 4.53784879 6.73572127 4.53784879 8.08984375 7.24609375 C6.77842519 9.05937637 5.46567901 10.87169889 4.15234375 12.68359375 C3.05599609 14.19759766 3.05599609 14.19759766 1.9375 15.7421875 C0.08984375 18.24609375 0.08984375 18.24609375 -0.91015625 19.24609375 C-5.43239851 19.20651176 -9.5893358 18.51580092 -13.72265625 16.68359375 C-19.30580018 14.39192099 -26.5417117 13.93423354 -32.20703125 16.140625 C-34.07141648 17.1463168 -34.07141648 17.1463168 -34.91015625 19.24609375 C-35.66152793 22.11681735 -35.66152793 22.11681735 -34.91015625 25.24609375 C-30.06654181 29.46950376 -24.08821176 31.4024439 -18.03515625 33.18359375 C-7.2726446 36.5928229 1.01577616 40.29448486 7.08984375 50.24609375 C9.85464576 55.77569777 8.93610254 65.9577739 7.40625 71.90234375 C6.46036262 73.88046508 5.42538567 75.50988925 4.08984375 77.24609375 C3.67734375 77.84421875 3.26484375 78.44234375 2.83984375 79.05859375 C-4.34744614 88.5327486 -14.53233467 91.63412375 -25.91015625 93.24609375 C-38.38081595 94.70607342 -52.73371211 90.54691019 -62.91015625 83.24609375 C-64.00390625 80.84765625 -64.00390625 80.84765625 -63.91015625 78.24609375 C-62.546875 75.60546875 -62.546875 75.60546875 -60.59765625 72.99609375 C-59.96214844 72.1246875 -59.32664062 71.25328125 -58.671875 70.35546875 C-56.56906487 67.83769165 -55.63146479 67.35429003 -52.41015625 66.87109375 C-48.08484874 67.33451956 -45.14551627 68.9639273 -41.375 71.0546875 C-36.06560124 73.62103714 -29.55490293 74.38638878 -23.875 72.609375 C-20.65348352 71.31250239 -20.65348352 71.31250239 -17.91015625 69.24609375 C-17.49696259 65.19808102 -17.49696259 65.19808102 -17.91015625 61.24609375 C-20.73654537 58.74501821 -23.44278568 57.5490868 -27.015625 56.4140625 C-27.99982422 56.08986328 -28.98402344 55.76566406 -29.99804688 55.43164062 C-32.04334366 54.7730731 -34.09019797 54.11932074 -36.13867188 53.47070312 C-44.62664368 50.65978728 -52.91261056 47.02005371 -57.91015625 39.24609375 C-58.28011719 38.69566406 -58.65007813 38.14523437 -59.03125 37.578125 C-62.96885797 30.97002857 -63.0456203 23.90888693 -61.25 16.53515625 C-58.09448408 7.6559989 -53.07640217 2.09230512 -44.72265625 -2.19140625 C-31.0050391 -8.65400637 -12.96656308 -7.81474741 0 0 Z " fill="#FEFEFE" transform="translate(751.91015625,547.75390625)"/>
<path d="M0 0 C0.33 0 0.66 0 1 0 C3.11304674 45.93628739 2.58862542 90.71378598 -6 136 C-6.33 136 -6.66 136 -7 136 C-7.05454409 133.64551325 -7.0939279 131.29232125 -7.125 128.9375 C-7.14820313 127.62652344 -7.17140625 126.31554687 -7.1953125 124.96484375 C-6.99790853 120.95754326 -6.17538041 117.82103953 -5 114 C-3.02998713 104.87861656 -1.85105915 95.56372123 -1.4453125 86.24609375 C-1.40596085 85.37942581 -1.36660919 84.51275787 -1.32606506 83.61982727 C-0.71048616 68.50888564 -0.64328229 53.37541377 -0.46777344 38.25445557 C-0.41676545 33.92936873 -0.36150134 29.60433625 -0.30664062 25.27929688 C-0.20036124 16.85291106 -0.09864972 8.42647858 0 0 Z " fill="#EFED01" transform="translate(412,530)"/>
<path d="M0 0 C0 0.33 0 0.66 0 1 C-1.11375 1.12375 -2.2275 1.2475 -3.375 1.375 C-7.03103677 1.6465813 -7.03103677 1.6465813 -9 4 C-9.19339652 6.77509622 -9.26222965 9.45000456 -9.24291992 12.22583008 C-9.24481827 13.07640488 -9.24671661 13.92697968 -9.24867249 14.80332947 C-9.25238807 17.62548942 -9.24166238 20.44739401 -9.23046875 23.26953125 C-9.22927694 25.22767608 -9.22882379 27.1858215 -9.2290802 29.14396667 C-9.22751382 33.25397303 -9.21921437 37.36389247 -9.20581055 41.47387695 C-9.18885409 46.73982248 -9.18499521 52.00567211 -9.18575573 57.27164173 C-9.18548357 61.31826186 -9.17999433 65.36486107 -9.17275429 69.41147423 C-9.16957341 71.35272755 -9.16760157 73.29398324 -9.16686058 75.23523903 C-9.16468898 77.95219568 -9.15592597 80.66905141 -9.14526367 83.38598633 C-9.14594345 84.58860611 -9.14594345 84.58860611 -9.14663696 85.81552124 C-9.1245764 89.66606657 -8.9367545 93.2569127 -8 97 C-7.34 97 -6.68 97 -6 97 C-6 98.65 -6 100.3 -6 102 C-10.19162063 98.2722351 -11.58282331 93.29146353 -12.27642632 87.81903648 C-12.39235852 85.58977079 -12.41717915 83.37941274 -12.40405273 81.1472168 C-12.41091599 80.31352066 -12.41777924 79.47982452 -12.42485046 78.62086487 C-12.44298264 75.8968041 -12.43930342 73.1733262 -12.43359375 70.44921875 C-12.43815938 68.54352127 -12.44346609 66.63782543 -12.44947815 64.73213196 C-12.45838042 60.75388867 -12.45601589 56.7758465 -12.44604492 52.79760742 C-12.43450977 47.6985585 -12.45485063 42.60019743 -12.48396206 37.50123882 C-12.50228985 33.5730194 -12.50203929 29.64496629 -12.49632454 25.71671486 C-12.49617117 23.83602744 -12.50222861 21.95532886 -12.51461601 20.07468224 C-12.52947411 17.451281 -12.51889092 14.829171 -12.50170898 12.20581055 C-12.51137695 11.43016754 -12.52104492 10.65452454 -12.53100586 9.8553772 C-12.48241961 6.31738793 -12.29785057 4.38284652 -10.09364319 1.54963684 C-6.30516209 -1.254456 -4.5822248 -0.89652224 0 0 Z " fill="#EEF13B" transform="translate(65,416)"/>
<path d="M0 0 C1.16725896 4.15972901 1.09120058 8.15204984 1.02172852 12.44042969 C1.01212097 13.28957443 1.00251343 14.13871918 0.99261475 15.01359558 C0.95967024 17.81644094 0.91932055 20.61912822 0.87890625 23.421875 C0.85460069 25.36671392 0.83075735 27.31155866 0.80735779 29.25640869 C0.74456025 34.37252444 0.67548128 39.48853689 0.60510254 44.60455322 C0.53438002 49.82616475 0.4695865 55.04784946 0.40429688 60.26953125 C0.27534033 70.51310126 0.13974904 80.75657194 0 91 C0.66 91 1.32 91 2 91 C2.02505615 91.59949463 2.0501123 92.19898926 2.07592773 92.81665039 C2.19285773 95.56543324 2.31513947 98.31395375 2.4375 101.0625 C2.47681641 102.00544922 2.51613281 102.94839844 2.55664062 103.91992188 C2.78750144 109.01661837 3.22063973 113.96013694 4 119 C4.03635763 120.9996695 4.04876598 123.00059462 4 125 C0.87587797 121.87587797 0.99225288 118.13604169 0.39550781 113.8659668 C0.2645232 112.93029971 0.13353859 111.99463263 -0.00141525 111.03061199 C-1.4095012 100.07410493 -1.39627568 89.17294877 -1.328125 78.14453125 C-1.32505742 75.93731313 -1.32318891 73.73009305 -1.32244873 71.52287292 C-1.31789526 66.94884572 -1.30364809 62.37499948 -1.28125 57.80102539 C-1.25265088 51.93110812 -1.24200122 46.06133036 -1.2375679 40.19134998 C-1.23342498 35.65763455 -1.22362214 31.1239473 -1.21169281 26.5902462 C-1.20599441 24.42322704 -1.20123429 22.25620521 -1.19742584 20.0891819 C-1.19058653 17.08390062 -1.17697365 14.07873192 -1.16113281 11.07348633 C-1.16001495 10.17859497 -1.15889709 9.28370361 -1.15774536 8.36169434 C-1.11471836 2.22943673 -1.11471836 2.22943673 0 0 Z " fill="#EFF036" transform="translate(427,517)"/>
<path d="M0 0 C-0.33 0.66 -0.66 1.32 -1 2 C-0.195625 1.979375 0.60875 1.95875 1.4375 1.9375 C4 2 4 2 5 3 C6.155 3.165 7.31 3.33 8.5 3.5 C12 4 12 4 13 5 C19.92126454 6.91963487 26.68002498 7.27433636 33.8203125 7.1953125 C34.80498505 7.1924826 35.78965759 7.18965271 36.8041687 7.18673706 C39.91124261 7.17565195 43.01801504 7.15056991 46.125 7.125 C48.24739163 7.11495509 50.36978784 7.1058319 52.4921875 7.09765625 C57.66157231 7.07575099 62.83073526 7.04130328 68 7 C51.13864941 16.07299053 22.32179169 10.54692284 4.70800781 5.31982422 C0.42726562 3.99791182 -3.79704044 2.55382141 -8 1 C-8 0.67 -8 0.34 -8 0 C-4.71303767 -0.79953138 -3.28976808 -1.09658936 0 0 Z " fill="#EFF336" transform="translate(212,683)"/>
<path d="M0 0 C0.33 0.99 0.66 1.98 1 3 C-0.78229225 4.96990196 -2.26708834 6.14626266 -4.625 7.4375 C-7.1626604 8.74396195 -7.1626604 8.74396195 -7.625 11.0625 C-7.74875 11.701875 -7.8725 12.34125 -8 13 C-8.99 13.66 -9.98 14.32 -11 15 C-12.1433257 16.91595089 -12.1433257 16.91595089 -13.0625 19.0625 C-14.78763127 22.89381564 -14.78763127 22.89381564 -17 24 C-17 24.99 -17 25.98 -17 27 C-17.66 27 -18.32 27 -19 27 C-19.33 27.99 -19.66 28.98 -20 30 C-20.99 30 -21.98 30 -23 30 C-23 30.66 -23 31.32 -23 32 C-23.66 32 -24.32 32 -25 32 C-21.3595887 19.42744551 -11.48466816 9.58207103 -2 1 C-1.34 0.67 -0.68 0.34 0 0 Z " fill="#F6FA09" transform="translate(198,490)"/>
<path d="M0 0 C0.33 0 0.66 0 1 0 C1.02326234 10.74498662 1.04098549 21.48996715 1.05181217 32.23497391 C1.05701077 37.22534327 1.06405296 42.2156953 1.07543945 47.20605469 C1.08637645 52.03009967 1.09229956 56.85412807 1.09487724 61.67818451 C1.09671213 63.51038626 1.10029484 65.34258719 1.10573006 67.1747818 C1.1704645 89.91972595 1.1704645 89.91972595 0 96 C-0.99 96.99 -0.99 96.99 -2 98 C-3.25421359 94.23735922 -2.6811203 91.91189755 -2.08837891 87.99023438 C-0.80418704 78.70667483 -0.65054211 69.51521125 -0.5859375 60.15625 C-0.56716987 58.40790959 -0.5475926 56.6595777 -0.5272522 54.91125488 C-0.47651461 50.36754446 -0.43658155 45.82380485 -0.39910889 41.27996826 C-0.35869743 36.6201694 -0.30777708 31.96048574 -0.2578125 27.30078125 C-0.16174706 18.20060244 -0.07712656 9.10035769 0 0 Z " fill="#EDED56" transform="translate(67,533)"/>
<path d="M0 0 C0.66136963 0.0736377 1.32273926 0.14727539 2.00415039 0.22314453 C8.86136149 0.92505904 15.55316912 1.0187133 22.4375 0.875 C29.8925803 0.7841427 36.49426382 1.09689794 43.671875 3.33203125 C46.89592876 4.25705339 49.67291386 4.22684678 53 4 C53.495 5.485 53.495 5.485 54 7 C56.00016466 8.20882096 56.00016466 8.20882096 58 9 C58 9.66 58 10.32 58 11 C55.05914861 10.02839128 52.12649655 9.04535451 49.2109375 8 C35.22478532 3.06824386 20.67925723 0.97642826 6.0859375 4.5625 C4 5 4 5 0 5 C0 3.35 0 1.7 0 0 Z " fill="#EEF329" transform="translate(232,484)"/>
<path d="M0 0 C9.20780147 7.0059359 16.32873278 16.98076125 22 27 C22 27.66 22 28.32 22 29 C21.34 29 20.68 29 20 29 C20 28.01 20 27.02 20 26 C19.34 26 18.68 26 18 26 C17.34 24.02 16.68 22.04 16 20 C14.88625 19.896875 13.7725 19.79375 12.625 19.6875 C10.830625 19.3471875 10.830625 19.3471875 9 19 C6.43312633 15.1496895 7.16711276 13.41430237 8 9 C7.236875 9 6.47375 9 5.6875 9 C3.79166667 9 1.89583333 9 0 9 C0 6 0 3 0 0 Z " fill="#F1F620" transform="translate(347,469)"/>
<path d="M0 0 C0.66 0 1.32 0 2 0 C2.50323177 21.02390518 -1.47216231 41.35710975 -5 62 C-5.33 62 -5.66 62 -6 62 C-6.05454409 59.64551325 -6.0939279 57.29232125 -6.125 54.9375 C-6.14820313 53.62652344 -6.17140625 52.31554687 -6.1953125 50.96484375 C-5.99790853 46.95754326 -5.17538041 43.82103953 -4 40 C-3.38228273 37.13989883 -2.89917032 34.26401538 -2.4375 31.375 C-2.30819092 30.56828857 -2.17888184 29.76157715 -2.0456543 28.93041992 C-0.61021064 19.33232546 -0.27959718 9.6894885 0 0 Z " fill="#E8EB30" transform="translate(411,604)"/>
<path d="M0 0 C0.33 0 0.66 0 1 0 C0.99214478 1.21115479 0.99214478 1.21115479 0.98413086 2.44677734 C0.96340071 6.08951038 0.95035251 9.73223102 0.9375 13.375 C0.92912109 14.64601563 0.92074219 15.91703125 0.91210938 17.2265625 C0.90727539 19.04414062 0.90727539 19.04414062 0.90234375 20.8984375 C0.89448853 22.57945557 0.89448853 22.57945557 0.88647461 24.29443359 C0.81378534 26.96867343 0.81378534 26.96867343 2 29 C1.34 29 0.68 29 0 29 C-1.61725534 32.00950123 -2.67582623 34.97103608 -3.625 38.25 C-3.88539063 39.14203125 -4.14578125 40.0340625 -4.4140625 40.953125 C-4.60742188 41.62859375 -4.80078125 42.3040625 -5 43 C-5.33 43 -5.66 43 -6 43 C-5.34148272 33.6870412 -3.91553651 24.52117147 -2.4375 15.3125 C-2.20084146 13.82101593 -1.96451106 12.32947976 -1.72851562 10.83789062 C-1.15611874 7.22465292 -0.57930799 3.6121369 0 0 Z " fill="#EDEE29" transform="translate(396,623)"/>
<path d="M0 0 C1.38476686 3.84657461 0.61209363 7.02552717 0 11 C-0.71416465 24.74766958 0.5968156 37.36508097 6.23046875 50.109375 C7 52 7 52 7 54 C6.34 54 5.68 54 5 54 C5 53.01 5 52.02 5 51 C4.34 51 3.68 51 3 51 C2.79503906 50.28972656 2.59007812 49.57945312 2.37890625 48.84765625 C2.10949219 47.92855469 1.84007812 47.00945313 1.5625 46.0625 C1.29566406 45.14597656 1.02882812 44.22945312 0.75390625 43.28515625 C0.20973949 41.0597507 0.20973949 41.0597507 -1 40 C-1.20896317 38.19188816 -1.36780361 36.37783968 -1.5 34.5625 C-1.71419183 30.63565085 -1.71419183 30.63565085 -3 27 C-3.50025079 17.60105725 -3.88743515 8.74672908 0 0 Z " fill="#EDF033" transform="translate(180,542)"/>
<path d="M0 0 C-14.24445723 6.50290439 -27.72943482 7.1720371 -43.25 7.0625 C-45.10044922 7.05573242 -45.10044922 7.05573242 -46.98828125 7.04882812 C-49.99224069 7.03718487 -52.99609266 7.02083376 -56 7 C-56 6.34 -56 5.68 -56 5 C-55.16529175 5.02356567 -55.16529175 5.02356567 -54.3137207 5.04760742 C-43.69305165 5.30495315 -33.28128109 5.2040275 -22.75 3.6875 C-21.91895752 3.56979248 -21.08791504 3.45208496 -20.23168945 3.33081055 C-15.01446837 2.51315121 -10.13620701 1.20494219 -5.13769531 -0.50073242 C-3 -1 -3 -1 0 0 Z " fill="#EBED36" transform="translate(294,672)"/>
<path d="M0 0 C0.66 0 1.32 0 2 0 C2 0.66 2 1.32 2 2 C2.66 2 3.32 2 4 2 C6.04405058 6.22981095 6.24296657 9.68931047 6.22705078 14.3605957 C6.22734283 15.08309006 6.22763489 15.80558441 6.22793579 16.54997253 C6.22654839 18.92536655 6.21101525 21.30044239 6.1953125 23.67578125 C6.19158027 25.32773161 6.18873429 26.9796842 6.18673706 28.63163757 C6.17911714 32.97012491 6.15948281 37.3084774 6.1373291 41.64691162 C6.11683526 46.07774023 6.10772779 50.50859073 6.09765625 54.93945312 C6.07623531 63.62636382 6.04211926 72.31316512 6 81 C5.67 81 5.34 81 5 81 C5 57.24 5 33.48 5 9 C4.34 9 3.68 9 3 9 C2.01 6.03 1.02 3.06 0 0 Z " fill="#F7F81E" transform="translate(63,524)"/>
<path d="M0 0 C0.66 0 1.32 0 2 0 C2.50376895 9.73953295 1.65101601 17.88623437 -1.02734375 27.24609375 C-1.7501612 30.03576269 -2.24014454 32.51345716 -2.56640625 35.34765625 C-3 39 -3 39 -4 41 C-5.32 41 -6.64 41 -8 41 C-7.72736328 40.21689453 -7.72736328 40.21689453 -7.44921875 39.41796875 C-6.60747357 36.95316621 -5.80280484 34.47774765 -5 32 C-4.73703125 31.23816406 -4.4740625 30.47632813 -4.203125 29.69140625 C-1.19052294 20.08489457 -0.7744285 9.98414909 0 0 Z " fill="#EEEE39" transform="translate(329,555)"/>
<path d="M0 0 C7.29847281 10.94770922 10.07595566 29.42336384 7.546875 42.30859375 C7.10041443 43.89352878 6.56271979 45.45252059 6 47 C5.34 46.67 4.68 46.34 4 46 C3.875 40.25 3.875 40.25 5 38 C5.69910741 26.8142814 3.72142039 17.09353657 0.5859375 6.4453125 C0 4 0 4 0 0 Z " fill="#ECEF2F" transform="translate(454,452)"/>
<path d="M0 0 C0.66 1.32 1.32 2.64 2 4 C2.99 4 3.98 4 5 4 C5.33 6.97 5.66 9.94 6 13 C6.66 13 7.32 13 8 13 C8 14.32 8 15.64 8 17 C8.66 17 9.32 17 10 17 C10.309375 18.051875 10.61875 19.10375 10.9375 20.1875 C12.54816509 24.53473199 14.93764661 28.15206449 17.5625 31.9375 C18.16276001 32.80701294 18.16276001 32.80701294 18.77514648 33.6940918 C20.92994497 36.84633503 20.92994497 36.84633503 24 39 C23.67 39.99 23.34 40.98 23 42 C14.74161588 33.12223707 9.19161712 22.73777707 4 11.875 C3.60192139 11.04516602 3.20384277 10.21533203 2.79370117 9.36035156 C2.42865479 8.57885742 2.0636084 7.79736328 1.6875 6.9921875 C1.36136719 6.29464355 1.03523437 5.59709961 0.69921875 4.87841797 C0 3 0 3 0 0 Z " fill="#ECF038" transform="translate(129,603)"/>
<path d="M0 0 C1.6874269 0.00015917 3.37485866 0.00585622 5.06225586 0.01586914 C6.39189613 0.01799156 6.39189613 0.01799156 7.74839783 0.02015686 C10.59133215 0.02577324 13.43418892 0.03832848 16.27709961 0.05102539 C18.19962452 0.05603828 20.12215065 0.06060155 22.04467773 0.06469727 C26.7680151 0.07574798 31.49129419 0.09302356 36.21459961 0.11352539 C36.21459961 0.44352539 36.21459961 0.77352539 36.21459961 1.11352539 C23.34459961 1.11352539 10.47459961 1.11352539 -2.78540039 1.11352539 C-2.85360444 13.40997264 -2.85360444 13.40997264 -0.78540039 25.11352539 C-2.10540039 24.78352539 -3.42540039 24.45352539 -4.78540039 24.11352539 C-4.81427275 20.30104113 -4.83215531 16.48858469 -4.84790039 12.67602539 C-4.8562793 11.58741211 -4.8646582 10.49879883 -4.87329102 9.37719727 C-4.87651367 8.34272461 -4.87973633 7.30825195 -4.88305664 6.24243164 C-4.88829346 5.28409424 -4.89353027 4.32575684 -4.89892578 3.33837891 C-4.70411262 -0.47954017 -4.01323319 0.12035817 0 0 Z " fill="#F3F53E" transform="translate(71.785400390625,484.886474609375)"/>
<path d="M0 0 C0.66 0.33 1.32 0.66 2 1 C0.69386058 4.91841827 -0.83129848 7.32640809 -4 10 C-4.66 10 -5.32 10 -6 10 C-6.66 11.32 -7.32 12.64 -8 14 C-8.99 14 -9.98 14 -11 14 C-11.33 15.32 -11.66 16.64 -12 18 C-12.66 18 -13.32 18 -14 18 C-14.061875 18.598125 -14.12375 19.19625 -14.1875 19.8125 C-15.3236757 22.87143458 -17.17330142 23.55041099 -20 25 C-18.47422198 20.07843555 -15.59300595 16.84988113 -12.25 13.0625 C-11.48042969 12.17014648 -11.48042969 12.17014648 -10.6953125 11.25976562 C-7.28374025 7.33817189 -3.71108388 3.63886219 0 0 Z " fill="#EFF326" transform="translate(165,463)"/>
<path d="M0 0 C0.33 0 0.66 0 1 0 C3.53790379 17.49340825 3.96422103 34.53226892 1 52 C0.67 52 0.34 52 0 52 C-0.02697137 49.39576408 -0.04682489 46.79180756 -0.0625 44.1875 C-0.07087891 43.44951172 -0.07925781 42.71152344 -0.08789062 41.95117188 C-0.10259828 38.70077932 -0.03531702 36.10595105 1 33 C1.30139313 27.01645996 1.1159893 21.14885155 0.22265625 15.22265625 C-0.28302486 10.1747168 -0.06952025 5.06725361 0 0 Z " fill="#EEED3B" transform="translate(383,536)"/>
<path d="M0 0 C1.5778125 0.01353516 1.5778125 0.01353516 3.1875 0.02734375 C5.75024878 0.05064147 8.31249512 0.08334888 10.875 0.125 C10.875 0.785 10.875 1.445 10.875 2.125 C10.1229126 2.15005615 9.3708252 2.1751123 8.59594727 2.20092773 C5.20960804 2.31650514 1.82357387 2.43940345 -1.5625 2.5625 C-2.74650391 2.60181641 -3.93050781 2.64113281 -5.15039062 2.68164062 C-6.27509766 2.72353516 -7.39980469 2.76542969 -8.55859375 2.80859375 C-9.60072021 2.84525146 -10.64284668 2.88190918 -11.71655273 2.91967773 C-14.0749826 2.86015341 -14.0749826 2.86015341 -15.125 4.125 C-16.97787502 4.19726502 -18.83333878 4.2088122 -20.6875 4.1875 C-21.69941406 4.17847656 -22.71132812 4.16945313 -23.75390625 4.16015625 C-24.53636719 4.14855469 -25.31882813 4.13695312 -26.125 4.125 C-18.01258153 -0.26413865 -9.00549285 -0.14894581 0 0 Z " fill="#E8EC37" transform="translate(254.125,470.875)"/>
<path d="M0 0 C0.33 0 0.66 0 1 0 C1.38922918 1.28745036 1.76098036 2.58019597 2.125 3.875 C2.33382812 4.59429688 2.54265625 5.31359375 2.7578125 6.0546875 C2.83773437 6.69664062 2.91765625 7.33859375 3 8 C2.34 8.66 1.68 9.32 1 10 C0.5769311 12.16999194 0.5769311 12.16999194 0.4375 14.5625 C0.09722222 18.90277778 0.09722222 18.90277778 -1 20 C-1.15582303 21.34015221 -1.25044142 22.68758903 -1.31640625 24.03515625 C-1.37924805 25.24848633 -1.37924805 25.24848633 -1.44335938 26.48632812 C-1.48267578 27.33646484 -1.52199219 28.18660156 -1.5625 29.0625 C-1.60568359 29.91650391 -1.64886719 30.77050781 -1.69335938 31.65039062 C-1.79976702 33.76672037 -1.90041731 35.88333813 -2 38 C-6.63875694 30.04439379 -3.62121306 19.35125394 -2 10.8125 C-1.80921875 9.76513672 -1.6184375 8.71777344 -1.421875 7.63867188 C-0.95649786 5.09073203 -0.4824538 2.54475133 0 0 Z " fill="#ECEF36" transform="translate(61,647)"/>
<path d="M0 0 C0.66 0.33 1.32 0.66 2 1 C1.01 1.33 0.02 1.66 -1 2 C-1 2.66 -1 3.32 -1 4 C-8.89144272 7.31151156 -15.59928983 7.19592251 -24.0625 6.6875 C-25.30966797 6.62626953 -26.55683594 6.56503906 -27.84179688 6.50195312 C-30.89565869 6.34984507 -33.9478088 6.18216799 -37 6 C-37 5.67 -37 5.34 -37 5 C-35.71867188 4.96261719 -34.43734375 4.92523437 -33.1171875 4.88671875 C-21.7076507 4.47990647 -10.91724433 3.63908144 0 0 Z " fill="#EBEF31" transform="translate(281,631)"/>
<path d="M0 0 C4.04160556 -0.05831395 8.08310205 -0.09370212 12.125 -0.125 C13.83816406 -0.15013672 13.83816406 -0.15013672 15.5859375 -0.17578125 C16.69453125 -0.18222656 17.803125 -0.18867188 18.9453125 -0.1953125 C20.46922607 -0.21102295 20.46922607 -0.21102295 22.02392578 -0.22705078 C26.89148191 0.14430502 30.6588793 1.82943965 35 4 C23.12 3.34 11.24 2.68 -1 2 C-0.67 1.34 -0.34 0.68 0 0 Z " fill="#F1F63B" transform="translate(243,443)"/>
<path d="M0 0 C0.33 0 0.66 0 1 0 C1.42745408 3.45060759 1.19531643 4.72688457 -0.86328125 7.60546875 C-1.67152344 8.45753906 -2.47976563 9.30960938 -3.3125 10.1875 C-4.11300781 11.04730469 -4.91351563 11.90710938 -5.73828125 12.79296875 C-8.50947474 15.49715583 -11.43280526 17.50407963 -15 19 C-15.66 18.67 -16.32 18.34 -17 18 C-16.27554687 17.3709375 -15.55109375 16.741875 -14.8046875 16.09375 C-9.65670167 11.53606654 -4.92843366 7.10921223 -1.0234375 1.3984375 C-0.68570312 0.93695312 -0.34796875 0.47546875 0 0 Z " fill="#ECF229" transform="translate(316,603)"/>
<path d="M0 0 C0.33 0.66 0.66 1.32 1 2 C0.17675733 4.09253318 -0.7365789 6.14981193 -1.6875 8.1875 C-5.04369241 15.60325497 -7.11640558 23.08890344 -9 31 C-9.33 31 -9.66 31 -10 31 C-10.1972739 19.71154909 -10.1972739 19.71154909 -9 16 C-8.34 15.67 -7.68 15.34 -7 15 C-6.34444881 12.47266765 -6.34444881 12.47266765 -6 10 C-5.34 10 -4.68 10 -4 10 C-3.855625 9.2575 -3.71125 8.515 -3.5625 7.75 C-3.376875 6.8425 -3.19125 5.935 -3 5 C-2.7834375 3.88625 -2.7834375 3.88625 -2.5625 2.75 C-2.376875 2.1725 -2.19125 1.595 -2 1 C-1.34 0.67 -0.68 0.34 0 0 Z " fill="#EFF231" transform="translate(403,446)"/>
<path d="M0 0 C0.66 0 1.32 0 2 0 C2.31375831 10.45861049 2.31697334 19.93061665 -1 30 C-1.66 30 -2.32 30 -3 30 C-2.855625 29.05640625 -2.71125 28.1128125 -2.5625 27.140625 C-1.50287912 19.8115806 -0.79393721 12.81904186 -1.02734375 5.390625 C-1 3 -1 3 0 0 Z " fill="#F2F226" transform="translate(371,554)"/>
<path d="M0 0 C-2.28929053 1.17154293 -4.58118362 2.33738074 -6.875 3.5 C-7.52597656 3.83386719 -8.17695313 4.16773438 -8.84765625 4.51171875 C-13.7734375 7 -13.7734375 7 -16 7 C-15.34 8.65 -14.68 10.3 -14 12 C-14.886875 11.649375 -15.77375 11.29875 -16.6875 10.9375 C-20.06203126 9.98244398 -21.69686152 10.02848868 -25 11 C-21.24237777 7.76387287 -17.31678149 5.45858179 -12.875 3.3125 C-11.94494141 2.85133789 -11.94494141 2.85133789 -10.99609375 2.38085938 C-3.66494866 -1.22164955 -3.66494866 -1.22164955 0 0 Z " fill="#ECEE39" transform="translate(228,476)"/>
<path d="M0 0 C0.66 0.33 1.32 0.66 2 1 C-3.91684902 7.86214442 -3.91684902 7.86214442 -8.4375 8.4375 C-9.283125 8.293125 -10.12875 8.14875 -11 8 C-11 8.99 -11 9.98 -11 11 C-14.73437848 11.87867729 -18.16774573 12.08912219 -22 12 C-19.75748687 10.50499124 -17.70952089 9.30163094 -15.3125 8.125 C-14.26449219 7.60679687 -14.26449219 7.60679687 -13.1953125 7.078125 C-11.73177083 6.359375 -10.26822917 5.640625 -8.8046875 4.921875 C-7.75667969 4.40367187 -7.75667969 4.40367187 -6.6875 3.875 C-5.73423828 3.40707031 -5.73423828 3.40707031 -4.76171875 2.9296875 C-2.74477488 1.90369691 -2.74477488 1.90369691 0 0 Z " fill="#EEF12E" transform="translate(316,659)"/>
<path d="M0 0 C1.98 0.99 1.98 0.99 4 2 C4 3.65 4 5.3 4 7 C4.66 7 5.32 7 6 7 C6 8.65 6 10.3 6 12 C6.66 12 7.32 12 8 12 C8 13.98 8 15.96 8 18 C8.66 18 9.32 18 10 18 C10 22.29 10 26.58 10 31 C9.67 31 9.34 31 9 31 C8.77957031 29.61941406 8.77957031 29.61941406 8.5546875 28.2109375 C7.05841541 19.76645936 4.81971113 12.50959696 1.20703125 4.73046875 C0 2 0 2 0 0 Z " fill="#F1F335" transform="translate(319,523)"/>
<path d="M0 0 C0 0.66 0 1.32 0 2 C-1.609375 3.25390625 -1.609375 3.25390625 -3.75 4.5625 C-4.44609375 4.99691406 -5.1421875 5.43132812 -5.859375 5.87890625 C-7.93258879 6.96469522 -9.7425264 7.44827529 -12 8 C-14.0065438 9.32346506 -16.00628175 10.65729179 -18 12 C-19.64619113 12.71573527 -21.30728055 13.4025696 -23 14 C-20.11217668 6.67786875 -10.60100976 3.64615786 -3.8125 0.6640625 C-2 0 -2 0 0 0 Z " fill="#EDF332" transform="translate(203,440)"/>
<path d="M0 0 C0.33 0 0.66 0 1 0 C1 3.96 1 7.92 1 12 C0.34 12 -0.32 12 -1 12 C-1 17.94 -1 23.88 -1 30 C-1.66 30 -2.32 30 -3 30 C-3.48741178 19.61993429 -2.03977033 10.13814418 0 0 Z " fill="#EAEC37" transform="translate(166,537)"/>
<path d="M0 0 C4.90874372 0.5339664 8.2342261 2.77559178 12.25 5.4375 C12.88679688 5.84548828 13.52359375 6.25347656 14.1796875 6.67382812 C18.86444357 9.72888713 18.86444357 9.72888713 20 12 C17.32867456 11.0353547 15.21650113 10.17590717 13 8.375 C10.46498492 6.63217713 9.024917 6.77313123 6 7 C4.68 7 3.36 7 2 7 C2.33 5.35 2.66 3.7 3 2 C2.01 2 1.02 2 0 2 C0 1.34 0 0.68 0 0 Z " fill="#EFF328" transform="translate(290,479)"/>
<path d="M0 0 C0 3 0 3 -1.64453125 4.9375 C-2.35996094 5.618125 -3.07539063 6.29875 -3.8125 7 C-4.87404297 8.0209375 -4.87404297 8.0209375 -5.95703125 9.0625 C-6.63121094 9.701875 -7.30539062 10.34125 -8 11 C-9.0036652 11.99632131 -10.00418113 12.99583628 -11 14 C-18 21 -18 21 -20.625 21.125 C-21.40875 21.08375 -22.1925 21.0425 -23 21 C-20.26655853 18.16647829 -17.432893 15.70932361 -14.3125 13.3125 C-9.14757426 9.23735056 -4.5475916 4.74531297 0 0 Z " fill="#E7EB3D" transform="translate(341,638)"/>
<path d="M0 0 C2.22942748 0.14179038 4.45853628 0.28859698 6.6875 0.4375 C7.92886719 0.51871094 9.17023438 0.59992188 10.44921875 0.68359375 C13.38777896 0.94544565 16.11800366 1.4157452 19 2 C20.32 2 21.64 2 23 2 C23.33 2.99 23.66 3.98 24 5 C26.00016466 6.20882096 26.00016466 6.20882096 28 7 C28 7.66 28 8.32 28 9 C25.0397584 8.01909154 22.08436496 7.02950469 19.140625 6 C12.81428128 3.81142704 6.60269334 2.11018738 0 1 C0 0.67 0 0.34 0 0 Z " fill="#EFF542" transform="translate(262,486)"/>
<path d="M0 0 C-1.35833028 3.75894369 -3.06797659 6.80345165 -5.375 10.0625 C-5.96023438 10.89910156 -6.54546875 11.73570312 -7.1484375 12.59765625 C-8.95042073 14.93567246 -10.8661781 16.96487911 -13 19 C-12.30058404 15.85262818 -11.23921302 12.97411124 -10 10 C-9.34 10 -8.68 10 -8 10 C-6.88305893 7.98538237 -6.88305893 7.98538237 -6.5 5.5 C-6 3 -6 3 -5 1 C-2 0 -2 0 0 0 Z " fill="#EDF632" transform="translate(334,603)"/>
<path d="M0 0 C0 0.66 0 1.32 0 2 C-0.99 2 -1.98 2 -3 2 C-3 2.66 -3 3.32 -3 4 C-4.50390625 5.0078125 -4.50390625 5.0078125 -6.5625 6.125 C-11.73225692 9.20661667 -16.28152064 13.56304128 -19 19 C-19.66 19 -20.32 19 -21 19 C-18.70555869 10.84198644 -11.80359001 5.49326896 -5.015625 1.03125 C-3 0 -3 0 0 0 Z " fill="#EDEF34" transform="translate(414,417)"/>
<path d="M0 0 C0.70703125 1.56640625 0.70703125 1.56640625 1 4 C-0.01255204 6.4341867 -1.05850255 8.63567489 -2.3125 10.9375 C-5.49025049 16.94274792 -8.05353543 22.21700394 -9 29 C-9.66 29 -10.32 29 -11 29 C-10.27440698 18.59983344 -5.33965327 8.79338645 0 0 Z " fill="#EAED3B" transform="translate(392,436)"/>
<path d="M0 0 C0.86625 0.4640625 0.86625 0.4640625 1.75 0.9375 C3.84294184 1.92583364 5.74535275 2.5168613 8 3 C8 3.66 8 4.32 8 5 C9.32 5.33 10.64 5.66 12 6 C12 6.66 12 7.32 12 8 C13.051875 8.1546875 13.051875 8.1546875 14.125 8.3125 C17.39137647 9.09359003 20.0471852 10.42058743 23 12 C23 12.66 23 13.32 23 14 C14.47194717 11.72585258 5.02658457 7.53987685 0 0 Z " fill="#ECF133" transform="translate(197,631)"/>
<path d="M0 0 C0.66 0 1.32 0 2 0 C1.51892439 9.30079508 -0.87375115 19.74523162 -7 27 C-6.343621 22.51474352 -5.29925791 18.33085971 -4 14 C-3.67 14 -3.34 14 -3 14 C-2.67 11.36 -2.34 8.72 -2 6 C-1.34 6 -0.68 6 0 6 C0 4.02 0 2.04 0 0 Z " fill="#F0F337" transform="translate(341,576)"/>
<path d="M0 0 C7.40750261 6.0469409 14.99686858 13.11805216 19 22 C18.67 22.66 18.34 23.32 18 24 C17.34 23.67 16.68 23.34 16 23 C16 22.01 16 21.02 16 20 C15.34 20 14.68 20 14 20 C13.34 18.02 12.68 16.04 12 14 C11.34 14 10.68 14 10 14 C9.5875 13.278125 9.175 12.55625 8.75 11.8125 C7.16643498 9.2674848 6.16523823 8.2017505 3.875 6.4375 C0.95542724 3.96221005 0.60721037 3.50256716 0 0 Z " fill="#EAF039" transform="translate(313,493)"/>
<path d="M0 0 C0.53367188 0.30292969 1.06734375 0.60585938 1.6171875 0.91796875 C6.6199931 3.73096498 11.67642956 6.37248234 16.8359375 8.88671875 C19 10 19 10 22 12 C15.375 12.125 15.375 12.125 12 11 C12 10.01 12 9.02 12 8 C10.576875 8.061875 10.576875 8.061875 9.125 8.125 C6 8 6 8 4 6 C3.29875 5.34 2.5975 4.68 1.875 4 C0 2 0 2 0 0 Z " fill="#EEF128" transform="translate(208,621)"/>
<path d="M0 0 C0.66 0.33 1.32 0.66 2 1 C1.72285156 2.19496094 1.44570312 3.38992188 1.16015625 4.62109375 C0.79401026 6.22650309 0.4281396 7.83197525 0.0625 9.4375 C-0.11990234 10.22060547 -0.30230469 11.00371094 -0.49023438 11.81054688 C-1.71020238 17.20058734 -2.47675456 22.49766112 -3 28 C-3.33 28 -3.66 28 -4 28 C-4.02684679 25.35409986 -4.04676357 22.70846904 -4.0625 20.0625 C-4.07087891 19.30775391 -4.07925781 18.55300781 -4.08789062 17.77539062 C-4.09652441 15.85005687 -4.05224333 13.92464419 -4 12 C-3.67 11.67 -3.34 11.34 -3 11 C-2.76807135 9.48530552 -2.58784762 7.96245438 -2.4375 6.4375 C-2.35371094 5.61121094 -2.26992187 4.78492188 -2.18359375 3.93359375 C-2.12300781 3.29550781 -2.06242188 2.65742187 -2 2 C-1.34 2 -0.68 2 0 2 C0 1.34 0 0.68 0 0 Z " fill="#F0F535" transform="translate(141,526)"/>
<path d="M0 0 C2.67499315 1.31667951 5.29441063 2.69845762 7.890625 4.1640625 C8.59960938 4.56367187 9.30859375 4.96328125 10.0390625 5.375 C10.76867187 5.7875 11.49828125 6.2 12.25 6.625 C12.99507812 7.04523437 13.74015625 7.46546875 14.5078125 7.8984375 C16.33902763 8.93143065 18.16957944 9.96559955 20 11 C20 11.33 20 11.66 20 12 C18.35 12 16.7 12 15 12 C15 11.34 15 10.68 15 10 C13.68 10 12.36 10 11 10 C11 9.34 11 8.68 11 8 C9.35 7.67 7.7 7.34 6 7 C6 6.34 6 5.68 6 5 C4.35 5.33 2.7 5.66 1 6 C0.67 4.02 0.34 2.04 0 0 Z " fill="#EFF22E" transform="translate(184,655)"/>
<path d="M0 0 C0.66 0.33 1.32 0.66 2 1 C0.32081081 4.0580356 -1.3837553 6.66990706 -4 9 C-7.43382117 9.69494 -10.54605801 9.49147001 -14 9 C-11.05949843 6.72965925 -8.03941567 4.69587949 -4.875 2.75 C-4.00617188 2.20859375 -3.13734375 1.6671875 -2.2421875 1.109375 C-1.13230469 0.56023438 -1.13230469 0.56023438 0 0 Z " fill="#EDF225" transform="translate(297,622)"/>
<path d="M0 0 C0.66 0 1.32 0 2 0 C3.34277173 3.66328986 4.67396269 7.33062196 6 11 C6.4125 12.134375 6.825 13.26875 7.25 14.4375 C8 17 8 17 8 21 C8.66 21 9.32 21 10 21 C10 23.64 10 26.28 10 29 C7.75052335 25.62578502 6.71543019 22.27499027 5.5625 18.4375 C5.34440674 17.72529297 5.12631348 17.01308594 4.90161133 16.27929688 C4.26254799 14.18773081 3.63026771 12.094231 3 10 C2.67257812 8.91847656 2.34515625 7.83695313 2.0078125 6.72265625 C1.33312196 4.48332622 0.66312845 2.24277591 0 0 Z " fill="#EFF340" transform="translate(359,510)"/>
<path d="M0 0 C0.33 0.99 0.66 1.98 1 3 C-0.66256652 4.83757352 -2.09324387 6.05109253 -4.28125 7.25 C-7.53713684 9.34574326 -9.75386003 11.78770803 -12.3125 14.6875 C-12.76689453 15.19861328 -13.22128906 15.70972656 -13.68945312 16.23632812 C-14.79876478 17.48576335 -15.90020678 18.74217823 -17 20 C-17 14.49046452 -11.69518349 10.76920103 -8 7 C-5.39894309 4.58259735 -2.74176609 2.25616719 0 0 Z " fill="#EAEB3C" transform="translate(198,490)"/>
<path d="M0 0 C5.08201656 0.59610135 9.12467934 2.93169492 13.5625 5.3125 C14.31724609 5.70373047 15.07199219 6.09496094 15.84960938 6.49804688 C19.80044261 8.59703581 23.03458816 10.56263932 26 14 C15.5498008 10.59760956 15.5498008 10.59760956 13.7421875 8.6328125 C11.36161225 6.40169041 8.74268443 5.23033118 5.8125 3.8125 C4.72582031 3.28269531 3.63914062 2.75289063 2.51953125 2.20703125 C1.68808594 1.80871094 0.85664063 1.41039062 0 1 C0 0.67 0 0.34 0 0 Z " fill="#ECF13D" transform="translate(302,439)"/>
<path d="M0 0 C0.33 0 0.66 0 1 0 C1.27474561 15.50786309 1.27474561 15.50786309 0 23 C-0.66 23.66 -1.32 24.32 -2 25 C-3.27548933 21.17353202 -2.62785311 18.02277608 -2.0625 14.125 C-1.44104922 9.72272286 -0.99153789 5.45106745 -1 1 C-0.67 0.67 -0.34 0.34 0 0 Z " fill="#EDF32D" transform="translate(67,606)"/>
<path d="M0 0 C0.33 0 0.66 0 1 0 C3.29612756 17.85649203 3.29612756 17.85649203 3 26 C2.34 25.67 1.68 25.34 1 25 C-0.66712437 16.90029198 -0.10800829 8.22063102 0 0 Z " fill="#EFF033" transform="translate(95,600)"/>
<path d="M0 0 C7.72422049 0.66257422 15.34800303 1.76464626 23 3 C18.59781276 5.93479149 15.06092583 4.89435716 10 4 C6.61981045 3.12858071 3.30614985 2.11846346 0 1 C0 0.67 0 0.34 0 0 Z " fill="#EDF038" transform="translate(223,646)"/>
<path d="M0 0 C0.33 0 0.66 0 1 0 C1.05534912 0.58491211 1.11069824 1.16982422 1.16772461 1.77246094 C1.42117265 4.43195108 1.67928825 7.09096832 1.9375 9.75 C2.02451172 10.67039062 2.11152344 11.59078125 2.20117188 12.5390625 C2.28818359 13.42851562 2.37519531 14.31796875 2.46484375 15.234375 C2.543396 16.05131836 2.62194824 16.86826172 2.70288086 17.70996094 C2.98329012 19.87120901 3.42444505 21.90017313 4 24 C2.68 23.67 1.36 23.34 0 23 C0 15.41 0 7.82 0 0 Z " fill="#E6EE29" transform="translate(67,486)"/>
<path d="M0 0 C1.65 0 3.3 0 5 0 C1 4 -3 8 -7 12 C-7.66 11.01 -8.32 10.02 -9 9 C-7.35 8.34 -5.7 7.68 -4 7 C-4 6.01 -4 5.02 -4 4 C-3.34 4 -2.68 4 -2 4 C-1.34 2.68 -0.68 1.36 0 0 Z " fill="#ECF629" transform="translate(206,499)"/>
<path d="M0 0 C1.25425781 0.11988281 2.50851563 0.23976563 3.80078125 0.36328125 C4.75339844 0.47027344 5.70601562 0.57726562 6.6875 0.6875 C6.6875 1.0175 6.6875 1.3475 6.6875 1.6875 C4.08393759 2.19083542 1.47973349 2.69029378 -1.125 3.1875 C-1.86298828 3.33058594 -2.60097656 3.47367187 -3.36132812 3.62109375 C-6.39044391 4.19676281 -9.221696 4.6875 -12.3125 4.6875 C-12.3125 4.0275 -12.3125 3.3675 -12.3125 2.6875 C-8.18432096 -0.63556573 -5.14450507 -0.52887435 0 0 Z " fill="#F4F832" transform="translate(234.3125,444.3125)"/>
<path d="M0 0 C2.33944736 0.28730055 4.6739143 0.61936779 7 1 C3.96943208 3.44168979 0.90981404 5.13027389 -2.625 6.75 C-4.06746094 7.42289063 -4.06746094 7.42289063 -5.5390625 8.109375 C-6.35117187 8.40328125 -7.16328125 8.6971875 -8 9 C-8.66 8.67 -9.32 8.34 -10 8 C-5.375 5 -5.375 5 -2 5 C-1.855625 4.360625 -1.71125 3.72125 -1.5625 3.0625 C-1 1 -1 1 0 0 Z " fill="#EEF72C" transform="translate(309,676)"/>
<path d="M0 0 C0.33 0.99 0.66 1.98 1 3 C1.66 3 2.32 3 3 3 C3.33 5.31 3.66 7.62 4 10 C4.99 10 5.98 10 7 10 C5.75023244 13.65316671 5.32901247 14.78065836 2 17 C1.34 11.39 0.68 5.78 0 0 Z " fill="#F3F72A" transform="translate(96,626)"/>
<path d="M0 0 C0.66 0 1.32 0 2 0 C2 0.66 2 1.32 2 2 C2.66 2 3.32 2 4 2 C5.59245395 5.51827628 6.24261382 8.22697352 6.1953125 12.08203125 C6.18886719 13.01337891 6.18242188 13.94472656 6.17578125 14.90429688 C6.15902344 15.86400391 6.14226562 16.82371094 6.125 17.8125 C6.11597656 18.79154297 6.10695313 19.77058594 6.09765625 20.77929688 C6.07417182 23.18645061 6.0413284 25.59309743 6 28 C5.67 28 5.34 28 5 28 C5 21.73 5 15.46 5 9 C4.34 9 3.68 9 3 9 C2.01 6.03 1.02 3.06 0 0 Z " fill="#F4F62A" transform="translate(63,524)"/>
<path d="M0 0 C-0.33 0.99 -0.66 1.98 -1 3 C-1.66 3 -2.32 3 -3 3 C-3 3.66 -3 4.32 -3 5 C-2.01 5 -1.02 5 0 5 C0.12375 5.639375 0.2475 6.27875 0.375 6.9375 C0.684375 7.9584375 0.684375 7.9584375 1 9 C1.66 9.33 2.32 9.66 3 10 C3.625 12.0625 3.625 12.0625 4 14 C0.08060535 10.19588166 -3.49102731 6.18423892 -7 2 C-2.25 0 -2.25 0 0 0 Z " fill="#F3F62D" transform="translate(312,504)"/>
<path d="M0 0 C0.625 1.875 0.625 1.875 1 4 C-1 6 -1 6 -3.625 6.125 C-4.40875 6.08375 -5.1925 6.0425 -6 6 C-6.33 7.32 -6.66 8.64 -7 10 C-8.32 9.67 -9.64 9.34 -11 9 C-9.54405245 7.68485396 -8.08516421 6.37296283 -6.625 5.0625 C-5.81289062 4.33160156 -5.00078125 3.60070312 -4.1640625 2.84765625 C-2 1 -2 1 0 0 Z " fill="#F0F42D" transform="translate(178,453)"/>
<path d="M0 0 C0.33 0 0.66 0 1 0 C1.25426031 6.22937753 -0.04789771 11.14369314 -2 17 C-2.66 17 -3.32 17 -4 17 C-4.33 17.66 -4.66 18.32 -5 19 C-3.83795007 12.45150687 -2.26616615 6.25461856 0 0 Z " fill="#EDF132" transform="translate(368,585)"/>
<path d="M0 0 C-3.63423209 2.32590854 -6.77088331 2.16265833 -11 2 C-11.33 2.66 -11.66 3.32 -12 4 C-14.31 3.67 -16.62 3.34 -19 3 C-15.88069175 1.2564244 -13.00889549 0.45354822 -9.5 -0.1875 C-8.5615625 -0.36667969 -7.623125 -0.54585938 -6.65625 -0.73046875 C-4.08888646 -0.99098064 -2.42584742 -0.80670869 0 0 Z " fill="#ECF032" transform="translate(240,431)"/>
<path d="M0 0 C0.99 0 1.98 0 3 0 C3.91397824 5.68697571 3.91397824 10.31302429 3 16 C0.96780512 12.59648662 0.63108961 9.6767073 0.375 5.75 C0.30023438 4.67234375 0.22546875 3.5946875 0.1484375 2.484375 C0.09945313 1.66453125 0.05046875 0.8446875 0 0 Z " fill="#EDF32E" transform="translate(432,654)"/>
<path d="M0 0 C0.33 0.66 0.66 1.32 1 2 C0.67 2.99 0.34 3.98 0 5 C0.99 5.33 1.98 5.66 3 6 C2.01 6.33 1.02 6.66 0 7 C-0.33 7.99 -0.66 8.98 -1 10 C-1.99 10 -2.98 10 -4 10 C-4 10.66 -4 11.32 -4 12 C-4.66 12 -5.32 12 -6 12 C-4.68139111 7.38486888 -2.78644563 3.90102388 0 0 Z " fill="#EEF225" transform="translate(179,510)"/>
<path d="M0 0 C2.49560036 2.24460607 3.8705484 4.38520597 5.25 7.4375 C5.60578125 8.19933594 5.9615625 8.96117187 6.328125 9.74609375 C7.08338373 12.27972334 6.87351072 13.54185126 6 16 C5.67 16 5.34 16 5 16 C5 14.35 5 12.7 5 11 C4.34 11 3.68 11 3 11 C3 10.34 3 9.68 3 9 C2.01 8.67 1.02 8.34 0 8 C0.66 7.67 1.32 7.34 2 7 C1.34 4.69 0.68 2.38 0 0 Z " fill="#EDF22C" transform="translate(332,517)"/>
<path d="M0 0 C1.42600325 4.27800976 -0.54362936 6.86765922 -2.4375 10.6875 C-2.77587891 11.38939453 -3.11425781 12.09128906 -3.46289062 12.81445312 C-4.29981348 14.54723706 -5.14877393 16.27419752 -6 18 C-6.66 18 -7.32 18 -8 18 C-6.10463724 11.48180123 -3.4821006 5.82185199 0 0 Z " fill="#EAEE37" transform="translate(139,496)"/>
<path d="M0 0 C0 3.10551666 -0.5393715 4.35261084 -2 7 C-2.66 7 -3.32 7 -4 7 C-4.061875 7.598125 -4.12375 8.19625 -4.1875 8.8125 C-5.3236757 11.87143458 -7.17330142 12.55041099 -10 14 C-8.62815653 9.93501119 -6.77931541 7.32603439 -3.875 4.1875 C-3.15054688 3.39730469 -2.42609375 2.60710937 -1.6796875 1.79296875 C-1.12539062 1.20128906 -0.57109375 0.60960937 0 0 Z " fill="#ECEF35" transform="translate(155,474)"/>
<path d="M0 0 C5 5 10 10 15 15 C11.40924853 13.66629231 8.15378602 12.19012918 5 10 C4.67 9.01 4.34 8.02 4 7 C3.34 6.67 2.68 6.34 2 6 C1.27306096 4.02111039 0.60183749 2.02045442 0 0 Z " fill="#E6EE33" transform="translate(193,606)"/>
<path d="M0 0 C1.32 0 2.64 0 4 0 C2.9318153 5.11365014 1.76892524 10.07227969 0 15 C-0.72153427 12.75522671 -1.09679526 11.37508163 -0.5 9.0625 C0.13041198 6.4620506 -0.45452464 4.59100795 -1 2 C-0.67 1.34 -0.34 0.68 0 0 Z " fill="#EEF32A" transform="translate(378,593)"/>
<path d="M0 0 C0.99 0.33 1.98 0.66 3 1 C3 2.65 3 4.3 3 6 C3.99 6 4.98 6 6 6 C5.34 7.32 4.68 8.64 4 10 C1.36 8.35 -1.28 6.7 -4 5 C-3.01 4.01 -2.02 3.02 -1 2 C-0.67 1.34 -0.34 0.68 0 0 Z " fill="#F2F720" transform="translate(294,491)"/>
<path d="M0 0 C2 2 2 2 2.8984375 3.890625 C4.164404 6.31481616 5.65969192 7.85748111 7.625 9.75 C8.57246094 10.67039062 8.57246094 10.67039062 9.5390625 11.609375 C10.02117187 12.06828125 10.50328125 12.5271875 11 13 C10.67 13.66 10.34 14.32 10 15 C5.71 10.71 1.42 6.42 -3 2 C-2.01 1.34 -1.02 0.68 0 0 Z " fill="#EEF337" transform="translate(156,645)"/>
<path d="M0 0 C-2.79624958 2.18697502 -5.63307872 3.99152813 -8.75 5.6875 C-9.94882813 6.34298828 -9.94882813 6.34298828 -11.171875 7.01171875 C-11.77515625 7.33785156 -12.3784375 7.66398437 -13 8 C-13 7.34 -13 6.68 -13 6 C-12.34 6 -11.68 6 -11 6 C-10.67 4.35 -10.34 2.7 -10 1 C-6.52674819 -0.1577506 -3.63932552 -0.06866652 0 0 Z " fill="#EFF829" transform="translate(198,459)"/>
<path d="M0 0 C0.66 0 1.32 0 2 0 C2 0.66 2 1.32 2 2 C2.66 2.33 3.32 2.66 4 3 C4 5.31 4 7.62 4 10 C3.01 10.33 2.02 10.66 1 11 C-0.17571451 7.32589215 -0.07366746 3.83070817 0 0 Z " fill="#F4F61C" transform="translate(80,461)"/>
<path d="M0 0 C4.39453125 0.73242188 4.39453125 0.73242188 8.7890625 1.46484375 C10.37847656 1.72974609 10.37847656 1.72974609 12 2 C14 2.33333333 16 2.66666667 18 3 C18 3.33 18 3.66 18 4 C12.06 4.495 12.06 4.495 6 5 C5.67 4.34 5.34 3.68 5 3 C2.47266765 2.34444881 2.47266765 2.34444881 0 2 C0 1.34 0 0.68 0 0 Z " fill="#EFF039" transform="translate(220,673)"/>
<path d="M0 0 C0.33 0 0.66 0 1 0 C0.4618629 5.69051363 -0.1400133 11.34865884 -1 17 C-1.33 17 -1.66 17 -2 17 C-2.05383848 14.54137599 -2.09359038 12.0839245 -2.125 9.625 C-2.14175781 8.92632813 -2.15851563 8.22765625 -2.17578125 7.5078125 C-2.19344267 5.67102514 -2.10303261 3.83398037 -2 2 C-1.34 1.34 -0.68 0.68 0 0 Z " fill="#EDF12E" transform="translate(407,649)"/>
<path d="M0 0 C0.66 0 1.32 0 2 0 C2 0.66 2 1.32 2 2 C2.99 2 3.98 2 5 2 C6.04349839 3.63978318 7.03182008 5.31464976 8 7 C9.93028972 9.39553903 11.95425966 11.70267994 14 14 C10.39713494 12.47475964 8.05700017 10.32514563 5.3125 7.5625 C4.52488281 6.78003906 3.73726562 5.99757813 2.92578125 5.19140625 C1 3 1 3 0 0 Z " fill="#EBEF3A" transform="translate(183,617)"/>
<path d="M0 0 C0.33 0.66 0.66 1.32 1 2 C-0.07408957 4.60474038 -1.20045633 7.09966038 -2.4375 9.625 C-2.77587891 10.33140625 -3.11425781 11.0378125 -3.46289062 11.765625 C-4.30154879 13.51381384 -5.14987847 15.25735686 -6 17 C-7.25541557 13.23375329 -6.37061958 11.62811066 -5 8 C-4.34 8 -3.68 8 -3 8 C-3 6.35 -3 4.7 -3 3 C-2.34 3 -1.68 3 -1 3 C-0.67 2.01 -0.34 1.02 0 0 Z " fill="#EBF038" transform="translate(376,608)"/>
<path d="M0 0 C1.46328423 4.45813929 -0.08219158 6.79557386 -2 11 C-2.69140522 13.77888613 -2.69140522 13.77888613 -3 16 C-3.66 15.67 -4.32 15.34 -5 15 C-4.5188509 9.22621075 -2.81532819 5.04140164 0 0 Z " fill="#F0F32F" transform="translate(100,516)"/>
<path d="M0 0 C3.71599191 -0.20086443 4.77208445 -0.1519437 8 2 C8 2.66 8 3.32 8 4 C9.32 3.67 10.64 3.34 12 3 C12.99 4.32 13.98 5.64 15 7 C14.01 7.495 14.01 7.495 13 8 C10.71741367 6.92325298 8.5643566 5.80453884 6.375 4.5625 C5.76398438 4.22412109 5.15296875 3.88574219 4.5234375 3.53710938 C3.011647 2.69853808 1.50529601 1.85017423 0 1 C0 0.67 0 0.34 0 0 Z " fill="#F0F634" transform="translate(303,455)"/>
<path d="M0 0 C2.64 0.33 5.28 0.66 8 1 C5.21769572 2.85486952 3.15636393 3.72462112 0 4.6875 C-0.86625 4.95949219 -1.7325 5.23148438 -2.625 5.51171875 C-5 6 -5 6 -8 5 C-4.77208445 2.8480563 -3.71599191 2.79913557 0 3 C0 2.01 0 1.02 0 0 Z " fill="#EFF53A" transform="translate(290,684)"/>
<path d="M0 0 C0.66 0 1.32 0 2 0 C3.25541557 3.76624671 2.37061958 5.37188934 1 9 C-0.32 9 -1.64 9 -3 9 C-2.01 6.03 -1.02 3.06 0 0 Z " fill="#ECF41E" transform="translate(324,587)"/>
<path d="M0 0 C1.2065625 0.0309375 1.2065625 0.0309375 2.4375 0.0625 C1.4475 0.5575 1.4475 0.5575 0.4375 1.0625 C1.0975 2.7125 1.7575 4.3625 2.4375 6.0625 C1.550625 5.711875 0.66375 5.36125 -0.25 5 C-3.62453126 4.04494398 -5.25936152 4.09098868 -8.5625 5.0625 C-7.758125 4.423125 -6.95375 3.78375 -6.125 3.125 C-2.3125 0.05640244 -2.3125 0.05640244 0 0 Z " fill="#EFF31E" transform="translate(211.5625,481.9375)"/>
<path d="M0 0 C1.72357119 2.58535679 2.44735018 4.03811614 3.1875 6.9375 C3.36667969 7.60652344 3.54585938 8.27554688 3.73046875 8.96484375 C4.03268678 11.24680888 3.68756692 12.82026659 3 15 C0.03090402 11.72698081 -0.34354794 9.61934238 -0.1875 5.25 C-0.16042969 4.26515625 -0.13335937 3.2803125 -0.10546875 2.265625 C-0.07066406 1.51796875 -0.03585937 0.7703125 0 0 Z " fill="#EFF332" transform="translate(379,521)"/>
<path d="M0 0 C0 0.66 0 1.32 0 2 C-1.64453125 3.32421875 -1.64453125 3.32421875 -3.8125 4.6875 C-4.52019531 5.14511719 -5.22789062 5.60273438 -5.95703125 6.07421875 C-8 7 -8 7 -11 6 C-11 5.34 -11 4.68 -11 4 C-9.5437455 3.32880451 -8.08492133 2.66318193 -6.625 2 C-5.81289062 1.62875 -5.00078125 1.2575 -4.1640625 0.875 C-2 0 -2 0 0 0 Z " fill="#F1F226" transform="translate(203,440)"/>
<path d="M0 0 C-0.33 0.66 -0.66 1.32 -1 2 C-0.34 2 0.32 2 1 2 C1 2.66 1 3.32 1 4 C1.66 4 2.32 4 3 4 C3 4.66 3 5.32 3 6 C-1.43090471 4.79157144 -3.98112756 3.48331435 -7 0 C-2.25 -1.125 -2.25 -1.125 0 0 Z " fill="#EDF428" transform="translate(75,699)"/>
<path d="M0 0 C2.97 0.495 2.97 0.495 6 1 C6.33 1.99 6.66 2.98 7 4 C7.99 4.33 8.98 4.66 10 5 C10 5.66 10 6.32 10 7 C10.66 7 11.32 7 12 7 C12 7.66 12 8.32 12 9 C7.09198451 7.51272258 3.59508707 4.55364515 0 1 C0 0.67 0 0.34 0 0 Z " fill="#ECF431" transform="translate(167,660)"/>
<path d="M0 0 C3.48354375 5.22531563 4.30934332 10.8131337 4 17 C2.23537317 13.91190305 2 12.76687864 2 9 C1.34 9 0.68 9 0 9 C0 6.03 0 3.06 0 0 Z " fill="#EEF13B" transform="translate(339,532)"/>
<path d="M0 0 C0.33 0 0.66 0 1 0 C1.66 3.63 2.32 7.26 3 11 C3.66 11 4.32 11 5 11 C5 12.65 5 14.3 5 16 C2.23777157 13.61443908 1.01341183 11.50796403 0 8 C-0.15512216 5.30787998 -0.09156216 2.70108374 0 0 Z " fill="#EFF434" transform="translate(54,502)"/>
<path d="M0 0 C1.21386936 3.64160808 0.6674695 4.33165469 -0.9375 7.6875 C-1.31777344 8.49574219 -1.69804688 9.30398438 -2.08984375 10.13671875 C-2.39019531 10.75160156 -2.69054687 11.36648438 -3 12 C-3.66 11.67 -4.32 11.34 -5 11 C-4.01 8.03 -3.02 5.06 -2 2 C-1.34 2 -0.68 2 0 2 C0 1.34 0 0.68 0 0 Z " fill="#F0F72F" transform="translate(122,505)"/>
<path d="M0 0 C0.66 0.33 1.32 0.66 2 1 C1.01 5.62 0.02 10.24 -1 15 C-1.66 15 -2.32 15 -3 15 C-2.69163768 12.87439563 -2.37818386 10.74952935 -2.0625 8.625 C-1.88847656 7.44164062 -1.71445312 6.25828125 -1.53515625 5.0390625 C-1 2 -1 2 0 0 Z " fill="#F2EF34" transform="translate(371,569)"/>
<path d="M0 0 C0.66 0 1.32 0 2 0 C2 0.66 2 1.32 2 2 C3.65 2.33 5.3 2.66 7 3 C7.33 5.31 7.66 7.62 8 10 C4.71211176 6.88983545 2.16264012 3.98381075 0 0 Z " fill="#F3F828" transform="translate(339,481)"/>
<path d="M0 0 C1.134375 0.020625 2.26875 0.04125 3.4375 0.0625 C0.6778139 1.90229073 -0.85991882 2.54573221 -4 3.25 C-4.76183594 3.42917969 -5.52367187 3.60835937 -6.30859375 3.79296875 C-8.69208496 4.0779963 -10.29354204 3.79125415 -12.5625 3.0625 C-10.62979418 1.12979418 -7.17608612 1.43586945 -4.5625 1.0625 C-3.5625 0.0625 -3.5625 0.0625 0 0 Z " fill="#ECEF35" transform="translate(277.5625,646.9375)"/>
<path d="M0 0 C0.99 0 1.98 0 3 0 C1.55007731 4.10811428 -0.45407573 7.46855666 -3 11 C-3.33 11 -3.66 11 -4 11 C-4 9.35 -4 7.7 -4 6 C-3.01 6 -2.02 6 -1 6 C-1.020625 5.195625 -1.04125 4.39125 -1.0625 3.5625 C-1 1 -1 1 0 0 Z " fill="#EEF52E" transform="translate(366,625)"/>
<path d="M0 0 C2.61724095 2.36797991 4.32861729 4.89600354 6 8 C6 8.66 6 9.32 6 10 C4.0625 9.6875 4.0625 9.6875 2 9 C1.67 8.01 1.34 7.02 1 6 C0.34 5.67 -0.32 5.34 -1 5 C-0.67 3.35 -0.34 1.7 0 0 Z " fill="#EFF427" transform="translate(151,617)"/>
<path d="M0 0 C0.99 0 1.98 0 3 0 C1.34832443 3.5786304 -0.78286492 6.74820188 -3 10 C-3.33 8.68 -3.66 7.36 -4 6 C-3.34 6 -2.68 6 -2 6 C-1.855625 5.195625 -1.71125 4.39125 -1.5625 3.5625 C-1 1 -1 1 0 0 Z " fill="#F3F829" transform="translate(159,489)"/>
<path d="M0 0 C1.32 0 2.64 0 4 0 C4.33 0.99 4.66 1.98 5 3 C7.00016466 4.20882096 7.00016466 4.20882096 9 5 C9 5.66 9 6.32 9 7 C5.59687262 5.94124926 2.98646769 4.99097846 0 3 C0 2.01 0 1.02 0 0 Z " fill="#F0F726" transform="translate(281,488)"/>
<path d="M0 0 C0 0.33 0 0.66 0 1 C-0.94875 1.28875 -1.8975 1.5775 -2.875 1.875 C-6.05211578 2.76825109 -6.05211578 2.76825109 -8 5 C-8.64767793 7.57061311 -8.64767793 7.57061311 -9 10 C-9.33 10 -9.66 10 -10 10 C-10.17754126 6.09409237 -10.20731737 3.31097606 -8 0 C-5.13822943 -1.43088528 -3.06624227 -0.59991697 0 0 Z " fill="#F0F61E" transform="translate(120,416)"/>
<path d="M0 0 C0.33 0 0.66 0 1 0 C1.08121924 1.60332791 1.13929134 3.20784026 1.1875 4.8125 C1.23970703 6.15248047 1.23970703 6.15248047 1.29296875 7.51953125 C0.95081002 10.41647515 0.24606427 11.22555028 -2 13 C-1.85915204 11.20793453 -1.71216299 9.41635083 -1.5625 7.625 C-1.48128906 6.62726562 -1.40007813 5.62953125 -1.31640625 4.6015625 C-1 2 -1 2 0 0 Z " fill="#EFF336" transform="translate(64,633)"/>
<path d="M0 0 C-2.31 1.65 -4.62 3.3 -7 5 C-7.66 4.67 -8.32 4.34 -9 4 C-9 2.68 -9 1.36 -9 0 C-3.375 -1.125 -3.375 -1.125 0 0 Z " fill="#F0F52F" transform="translate(335,666)"/>
<path d="M0 0 C-1.875 4.75 -1.875 4.75 -3 7 C-3.66 7 -4.32 7 -5 7 C-5.33 5.35 -5.66 3.7 -6 2 C-2.25 0 -2.25 0 0 0 Z " fill="#EFF620" transform="translate(334,603)"/>
<path d="M0 0 C0.99 0.33 1.98 0.66 3 1 C2.01 2.485 2.01 2.485 1 4 C1.33 4.99 1.66 5.98 2 7 C-2.875 5.25 -2.875 5.25 -4 3 C-3.01 3 -2.02 3 -1 3 C-0.67 2.01 -0.34 1.02 0 0 Z " fill="#F1F81F" transform="translate(404,696)"/>
<path d="M0 0 C4.38889325 0.66498383 7.9811485 2.18757677 12 4 C12 4.66 12 5.32 12 6 C10.55903414 5.57405412 9.12231288 5.13373367 7.6875 4.6875 C6.88699219 4.44386719 6.08648437 4.20023438 5.26171875 3.94921875 C2.90035427 2.95817977 1.66120007 1.91925057 0 0 Z " fill="#EFF338" transform="translate(192,677)"/>
<path d="M0 0 C0.66 1.32 1.32 2.64 2 4 C2.99 4 3.98 4 5 4 C5 5.98 5 7.96 5 10 C4.34 10 3.68 10 3 10 C0 3.375 0 3.375 0 0 Z " fill="#F0F62D" transform="translate(129,603)"/>
<path d="M0 0 C0.33 0 0.66 0 1 0 C1.33 5.28 1.66 10.56 2 16 C1.34 16 0.68 16 0 16 C-0.9360342 12.20732808 -0.98276252 9.06325435 -0.5625 5.1875 C-0.40974609 3.72376953 -0.40974609 3.72376953 -0.25390625 2.23046875 C-0.12822266 1.12638672 -0.12822266 1.12638672 0 0 Z " fill="#F3F912" transform="translate(379,479)"/>
<path d="M0 0 C1.67299959 0.65061095 3.33859237 1.32033324 5 2 C5.7425 2.268125 6.485 2.53625 7.25 2.8125 C9 4 9 4 9.75 6.625 C9.87375 7.800625 9.87375 7.800625 10 9 C8.8944811 8.06409496 7.79064547 7.12620142 6.6875 6.1875 C6.07261719 5.66542969 5.45773437 5.14335937 4.82421875 4.60546875 C3.14575321 3.12827531 1.56117966 1.59960869 0 0 Z " fill="#EFF335" transform="translate(329,472)"/>
<path d="M0 0 C2.31 0.33 4.62 0.66 7 1 C2.375 5.875 2.375 5.875 -1 7 C-1 6.34 -1 5.68 -1 5 C-0.34 5 0.32 5 1 5 C0.67 3.35 0.34 1.7 0 0 Z " fill="#F1F82C" transform="translate(178,466)"/>
<path d="M0 0 C-3.96 1.65 -7.92 3.3 -12 5 C-11.67 3.68 -11.34 2.36 -11 1 C-4.5 -1.125 -4.5 -1.125 0 0 Z " fill="#EFF532" transform="translate(210,454)"/>
<path d="M0 0 C2.97 0.495 2.97 0.495 6 1 C5.67 1.66 5.34 2.32 5 3 C4.34 2.67 3.68 2.34 3 2 C2.67 2.99 2.34 3.98 2 5 C1.01 4.67 0.02 4.34 -1 4 C-0.67 2.68 -0.34 1.36 0 0 Z M0 5 C2 6 2 6 2 6 Z " fill="#F7F817" transform="translate(84,416)"/>
<path d="M0 0 C4.75207471 -0.43200679 7.78210698 1.01510917 12 3 C7.47907032 4.45606519 4.48351204 3.27032841 0 2 C0 1.34 0 0.68 0 0 Z " fill="#EDF23F" transform="translate(219,687)"/>
<path d="M0 0 C1.485 0.99 1.485 0.99 3 2 C3 2.66 3 3.32 3 4 C4.32 4.66 5.64 5.32 7 6 C5.125 7.0625 5.125 7.0625 3 8 C2.34 7.67 1.68 7.34 1 7 C0.59270772 4.67843403 0.25561323 2.3431213 0 0 Z " fill="#F2FA26" transform="translate(168,640)"/>
<path d="M0 0 C0.66 0 1.32 0 2 0 C2 0.66 2 1.32 2 2 C2.99 2.33 3.98 2.66 5 3 C4.67 4.98 4.34 6.96 4 9 C1.49701566 6.06171403 0.53069061 3.82097239 0 0 Z " fill="#EFF330" transform="translate(169,592)"/>
<path d="M0 0 C0.66 0 1.32 0 2 0 C0.515 5.445 0.515 5.445 -1 11 C-1.33 11 -1.66 11 -2 11 C-2.33 8.36 -2.66 5.72 -3 3 C-2.01 3 -1.02 3 0 3 C0 2.01 0 1.02 0 0 Z " fill="#EEF22F" transform="translate(183,531)"/>
<path d="M0 0 C2.44839588 3.67259383 4 6.54648201 4 11 C3.34 11 2.68 11 2 11 C0.19769832 7.17010894 -0.19622241 4.21878192 0 0 Z " fill="#EEF536" transform="translate(375,510)"/>
<path d="M0 0 C0.33 0.99 0.66 1.98 1 3 C-0.3125 4.5 -0.3125 4.5 -2 6 C-2.99 6 -3.98 6 -5 6 C-3.63016497 2.83884224 -3.0109362 2.0072908 0 0 Z " fill="#ECF02B" transform="translate(198,490)"/>
<path d="M0 0 C0.33 0 0.66 0 1 0 C1.3125 2.3125 1.3125 2.3125 1 5 C-1.5 6.8125 -1.5 6.8125 -4 8 C-2.87548273 5.0280615 -1.77706209 2.66559313 0 0 Z " fill="#EEF130" transform="translate(144,488)"/>
<path d="M0 0 C1.98 0.66 3.96 1.32 6 2 C6 3.65 6 5.3 6 7 C1.125 3.375 1.125 3.375 0 0 Z " fill="#EFF432" transform="translate(62,692)"/>
<path d="M0 0 C2.25 0.25 2.25 0.25 4 1 C2.8125 2.5 2.8125 2.5 1 4 C-1.6875 4.1875 -1.6875 4.1875 -4 4 C-2.25 1.9375 -2.25 1.9375 0 0 Z " fill="#F1F52D" transform="translate(322,655)"/>
<path d="M0 0 C2.6875 -0.3125 2.6875 -0.3125 5 0 C2.6875 2.5 2.6875 2.5 0 5 C-0.99 5 -1.98 5 -3 5 C-1.8125 2.5 -1.8125 2.5 0 0 Z " fill="#EEF430" transform="translate(310,628)"/>
<path d="M0 0 C0.66 0 1.32 0 2 0 C2.99 2.97 3.98 5.94 5 9 C4.01 9.495 4.01 9.495 3 10 C2.01 6.7 1.02 3.4 0 0 Z " fill="#EDF530" transform="translate(359,510)"/>
<path d="M0 0 C0.6875 1.6875 0.6875 1.6875 1 4 C-0.25 6.75 -0.25 6.75 -2 9 C-2.99 9 -3.98 9 -5 9 C-3.50163895 5.88801935 -1.80066242 2.9465385 0 0 Z " fill="#F0F241" transform="translate(106,507)"/>
<path d="M0 0 C1.125 1.75 1.125 1.75 2 4 C1.125 6.25 1.125 6.25 0 8 C-0.66 7.67 -1.32 7.34 -2 7 C-1.34 4.69 -0.68 2.38 0 0 Z " fill="#F0F711" transform="translate(131,514)"/>
<path d="M0 0 C0.99 0.495 0.99 0.495 2 1 C2.73075648 3.3140622 3.40138258 5.64828869 4 8 C2.68 7.34 1.36 6.68 0 6 C0 4.02 0 2.04 0 0 Z " fill="#F0F32B" transform="translate(371,502)"/>
</svg>
